# www.mecabricks.com
mtllib Brain.mtl
o Part.1
v 4.839 8.322 1.297
v 4.585 8.837 1.229
v 4.19 9.247 1.123
v 3.691 9.509 0.989
v 3.139 9.58 0.841
v 3.691 1.191 0.989
v 4.19 1.453 1.123
v 4.585 1.863 1.229
v 4.839 2.378 1.297
v 2.318 8.2 0.621
v 2.318 9.58 0.621
v 4.926 7.75 1.32
v 4.926 2.95 1.32
v 3.139 1.1 0.841
v 3.139 0.02 0.841
v 2.318 0.02 0.621
v 2.078 0.02 1.2
v 2.815 0.02 1.625
v 2.815 1.1 1.625
v 4.417 2.95 2.55
v 4.417 7.75 2.55
v 2.078 9.58 1.2
v 2.078 8.2 1.2
v 4.338 2.378 2.505
v 4.111 1.863 2.373
v 3.756 1.453 2.169
v 3.31 1.191 1.911
v 2.815 9.58 1.625
v 3.31 9.509 1.911
v 3.756 9.247 2.169
v 4.111 8.837 2.373
v 4.338 8.322 2.505
v 3.542 8.322 3.542
v 3.356 8.837 3.356
v 3.067 9.247 3.067
v 2.702 9.509 2.702
v 2.298 9.58 2.298
v 2.702 1.191 2.702
v 3.067 1.453 3.067
v 3.356 1.863 3.356
v 3.542 2.378 3.542
v 1.697 8.2 1.697
v 1.697 9.58 1.697
v 3.606 7.75 3.606
v 3.606 2.95 3.606
v 2.298 1.1 2.298
v 2.298 0.02 2.298
v 1.697 0.02 1.697
v 1.2 0.02 2.078
v 1.625 0.02 2.815
v 1.625 1.1 2.815
v 2.55 2.95 4.417
v 2.55 7.75 4.417
v 1.2 9.58 2.078
v 1.2 8.2 2.078
v 2.505 2.378 4.338
v 2.373 1.863 4.111
v 2.169 1.453 3.756
v 1.911 1.191 3.31
v 1.625 9.58 2.815
v 1.911 9.509 3.31
v 2.169 9.247 3.756
v 2.373 8.837 4.111
v 2.505 8.322 4.338
v 1.297 8.322 4.839
v 1.229 8.837 4.585
v 1.123 9.247 4.19
v 0.989 9.509 3.691
v 0.841 9.58 3.139
v 0.989 1.191 3.691
v 1.123 1.453 4.19
v 1.229 1.863 4.585
v 1.297 2.378 4.839
v 0.621 8.2 2.318
v 0.621 9.58 2.318
v 1.32 7.75 4.926
v 1.32 2.95 4.926
v 0.841 1.1 3.139
v 0.841 0.02 3.139
v 0.621 0.02 2.318
v 4.926 7.7 1.32
v 4.417 7.7 2.55
v 3.606 7.7 3.606
v 2.55 7.7 4.417
v 1.32 7.7 4.926
v 4.926 3 1.32
v 3.606 3 3.606
v 1.32 3 4.926
v 4.417 3 2.55
v 2.55 3 4.417
v -4.839 8.322 1.297
v -4.585 8.837 1.229
v -4.19 9.247 1.123
v -3.691 9.509 0.989
v -3.139 9.58 0.841
v -3.691 1.191 0.989
v -4.19 1.453 1.123
v -4.585 1.863 1.229
v -4.839 2.378 1.297
v -2.318 9.58 0.621
v -4.926 7.75 1.32
v -4.926 2.95 1.32
v -3.139 1.1 0.841
v -3.139 0.02 0.841
v -2.318 0.02 0.621
v -2.078 0.02 1.2
v -2.815 0.02 1.625
v -2.815 1.1 1.625
v -4.417 2.95 2.55
v -4.417 7.75 2.55
v -2.078 9.58 1.2
v -4.338 2.378 2.505
v -4.111 1.863 2.373
v -3.756 1.453 2.169
v -3.31 1.191 1.911
v -2.815 9.58 1.625
v -3.31 9.509 1.911
v -3.756 9.247 2.169
v -4.111 8.837 2.373
v -4.338 8.322 2.505
v -3.542 8.322 3.542
v -3.356 8.837 3.356
v -3.067 9.247 3.067
v -2.702 9.509 2.702
v -2.298 9.58 2.298
v -2.702 1.191 2.702
v -3.067 1.453 3.067
v -3.356 1.863 3.356
v -3.542 2.378 3.542
v -1.697 9.58 1.697
v -3.606 7.75 3.606
v -3.606 2.95 3.606
v -2.298 1.1 2.298
v -2.298 0.02 2.298
v -1.697 0.02 1.697
v -1.2 0.02 2.078
v -1.625 0.02 2.815
v -1.625 1.1 2.815
v -2.55 2.95 4.417
v -2.55 7.75 4.417
v -1.2 9.58 2.078
v -2.505 2.378 4.338
v -2.373 1.863 4.111
v -2.169 1.453 3.756
v -1.911 1.191 3.31
v -1.625 9.58 2.815
v -1.911 9.509 3.31
v -2.169 9.247 3.756
v -2.373 8.837 4.111
v -2.505 8.322 4.338
v -1.297 8.322 4.839
v -1.229 8.837 4.585
v -1.123 9.247 4.19
v -0.989 9.509 3.691
v -0.841 9.58 3.139
v -0.989 1.191 3.691
v -1.123 1.453 4.19
v -1.229 1.863 4.585
v -1.297 2.378 4.839
v -0.621 9.58 2.318
v -1.32 7.75 4.926
v -1.32 2.95 4.926
v -0.841 1.1 3.139
v -0.841 0.02 3.139
v -0.621 0.02 2.318
v 0 0.02 2.4
v 0 0.02 3.25
v 0 1.1 3.25
v 0 2.95 5.1
v 0 7.75 5.1
v 0 9.58 2.4
v 0 2.378 5.009
v 0 1.863 4.747
v 0 1.453 4.337
v 0 1.191 3.822
v 0 9.58 3.25
v 0 9.509 3.822
v 0 9.247 4.337
v 0 8.837 4.747
v 0 8.322 5.009
v -4.926 7.7 1.32
v -4.417 7.7 2.55
v -3.606 7.7 3.606
v -2.55 7.7 4.417
v -1.32 7.7 4.926
v 0 7.7 5.1
v -4.926 3 1.32
v -3.606 3 3.606
v -1.32 3 4.926
v -4.417 3 2.55
v -2.55 3 4.417
v 0 3 5.1
v 4.337 9.247 0
v 4.839 8.322 -1.297
v 4.585 8.837 -1.229
v 4.19 9.247 -1.123
v 3.691 9.509 -0.989
v 3.139 9.58 -0.841
v 3.691 1.191 -0.989
v 4.19 1.453 -1.123
v 4.585 1.863 -1.229
v 4.839 2.378 -1.297
v 2.318 8.2 -0.621
v 2.318 9.58 -0.621
v 4.926 7.75 -1.32
v 4.926 2.95 -1.32
v 3.139 1.1 -0.841
v 3.139 0.02 -0.841
v 2.318 0.02 -0.621
v 2.078 0.02 -1.2
v 2.815 0.02 -1.625
v 2.815 1.1 -1.625
v 4.417 2.95 -2.55
v 4.417 7.75 -2.55
v 2.078 9.58 -1.2
v 2.078 8.2 -1.2
v 4.338 2.378 -2.505
v 4.111 1.863 -2.373
v 3.756 1.453 -2.169
v 3.31 1.191 -1.911
v 2.815 9.58 -1.625
v 3.31 9.509 -1.911
v 3.756 9.247 -2.169
v 4.111 8.837 -2.373
v 4.338 8.322 -2.505
v 3.542 8.322 -3.542
v 3.356 8.837 -3.356
v 3.067 9.247 -3.067
v 2.702 9.509 -2.702
v 2.298 9.58 -2.298
v 2.702 1.191 -2.702
v 3.067 1.453 -3.067
v 3.356 1.863 -3.356
v 3.542 2.378 -3.542
v 1.697 9.58 -1.697
v 3.606 7.75 -3.606
v 3.606 2.95 -3.606
v 2.298 1.1 -2.298
v 2.298 0.02 -2.298
v 1.697 0.02 -1.697
v 1.2 0.02 -2.078
v 1.625 0.02 -2.815
v 1.625 1.1 -2.815
v 2.55 2.95 -4.417
v 2.55 7.75 -4.417
v 1.2 9.58 -2.078
v 1.2 8.2 -2.078
v 2.505 2.378 -4.338
v 2.373 1.863 -4.111
v 2.169 1.453 -3.756
v 1.911 1.191 -3.31
v 1.625 9.58 -2.815
v 1.911 9.509 -3.31
v 2.169 9.247 -3.756
v 2.373 8.837 -4.111
v 2.505 8.322 -4.338
v 1.297 8.322 -4.839
v 1.229 8.837 -4.585
v 1.123 9.247 -4.19
v 0.989 9.509 -3.691
v 0.841 9.58 -3.139
v 0.989 1.191 -3.691
v 1.123 1.453 -4.19
v 1.229 1.863 -4.585
v 1.297 2.378 -4.839
v 0.621 8.2 -2.318
v 0.621 9.58 -2.318
v 1.32 7.75 -4.926
v 1.32 2.95 -4.926
v 0.841 1.1 -3.139
v 0.841 0.02 -3.139
v 0.621 0.02 -2.318
v 2.4 0.02 0
v 3.25 0.02 0
v 3.25 1.1 0
v 5.1 2.95 0
v 5.1 7.75 0
v 2.4 9.58 0
v 5.009 2.378 0
v 4.747 1.863 0
v 4.337 1.453 0
v 3.822 1.191 0
v 3.25 9.58 0
v 3.822 9.509 0
v 4.747 8.837 0
v 5.009 8.322 0
v 4.926 7.7 -1.32
v 4.417 7.7 -2.55
v 3.606 7.7 -3.606
v 2.55 7.7 -4.417
v 1.32 7.7 -4.926
v 5.1 7.7 0
v 4.926 3 -1.32
v 3.606 3 -3.606
v 1.32 3 -4.926
v 4.417 3 -2.55
v 2.55 3 -4.417
v 5.1 3 0
v -4.337 9.247 0
v -4.839 8.322 -1.297
v -4.585 8.837 -1.229
v -4.19 9.247 -1.123
v -3.691 9.509 -0.989
v -3.139 9.58 -0.841
v -3.691 1.191 -0.989
v -4.19 1.453 -1.123
v -4.585 1.863 -1.229
v -4.839 2.378 -1.297
v 0 9.3 0.8
v -2.318 9.58 -0.621
v -4.926 7.75 -1.32
v -4.926 2.95 -1.32
v -3.139 1.1 -0.841
v -3.139 0.02 -0.841
v -2.318 0.02 -0.621
v -2.078 0.02 -1.2
v -2.815 0.02 -1.625
v -2.815 1.1 -1.625
v -4.417 2.95 -2.55
v -4.417 7.75 -2.55
v -2.078 9.58 -1.2
v -4.338 2.378 -2.505
v -4.111 1.863 -2.373
v -3.756 1.453 -2.169
v -3.31 1.191 -1.911
v -2.815 9.58 -1.625
v -3.31 9.509 -1.911
v -3.756 9.247 -2.169
v -4.111 8.837 -2.373
v -4.338 8.322 -2.505
v -3.542 8.322 -3.542
v -3.356 8.837 -3.356
v -3.067 9.247 -3.067
v -2.702 9.509 -2.702
v -2.298 9.58 -2.298
v -2.702 1.191 -2.702
v -3.067 1.453 -3.067
v -3.356 1.863 -3.356
v -3.542 2.378 -3.542
v -1.697 8.2 -1.697
v -1.697 9.58 -1.697
v -3.606 7.75 -3.606
v -3.606 2.95 -3.606
v -2.298 1.1 -2.298
v -2.298 0.02 -2.298
v -1.697 0.02 -1.697
v -1.2 0.02 -2.078
v -1.625 0.02 -2.815
v -1.625 1.1 -2.815
v -2.55 2.95 -4.417
v -2.55 7.75 -4.417
v -1.2 9.58 -2.078
v -2.505 2.378 -4.338
v -2.373 1.863 -4.111
v -2.169 1.453 -3.756
v -1.911 1.191 -3.31
v -1.625 9.58 -2.815
v -1.911 9.509 -3.31
v -2.169 9.247 -3.756
v -2.373 8.837 -4.111
v -2.505 8.322 -4.338
v -1.297 8.322 -4.839
v -1.229 8.837 -4.585
v -1.123 9.247 -4.19
v -0.989 9.509 -3.691
v -0.841 9.58 -3.139
v -0.989 1.191 -3.691
v -1.123 1.453 -4.19
v -1.229 1.863 -4.585
v -1.297 2.378 -4.839
v -0.621 9.58 -2.318
v -1.32 7.75 -4.926
v -1.32 2.95 -4.926
v -0.841 1.1 -3.139
v -0.841 0.02 -3.139
v -0.621 0.02 -2.318
v 0 0.02 -2.4
v 0 0.02 -3.25
v 0 1.1 -3.25
v 0 2.95 -5.1
v 0 7.75 -5.1
v 0 9.58 -2.4
v 0 2.378 -5.009
v 0 1.863 -4.747
v 0 1.453 -4.337
v 0 1.191 -3.822
v 0 9.58 -3.25
v 0 9.509 -3.822
v 0 9.247 -4.337
v 0 8.837 -4.747
v 0 8.322 -5.009
v 1 9.3 0.8
v -2.4 0.02 0
v -3.25 0.02 0
v -3.25 1.1 0
v -5.1 2.95 0
v -5.1 7.75 0
v -2.4 9.58 0
v -2.4 8.2 0
v -5.009 2.378 0
v -4.747 1.863 0
v -4.337 1.453 0
v -3.822 1.191 0
v -3.25 9.58 0
v -3.822 9.509 0
v -4.747 8.837 0
v -5.009 8.322 0
v -4.926 7.7 -1.32
v -4.417 7.7 -2.55
v -3.606 7.7 -3.606
v -2.55 7.7 -4.417
v -1.32 7.7 -4.926
v 0 7.7 -5.1
v -5.1 7.7 0
v -4.926 3 -1.32
v -3.606 3 -3.606
v -1.32 3 -4.926
v -4.417 3 -2.55
v -2.55 3 -4.417
v 0 3 -5.1
v -5.1 3 0
v 0 9.58 1.6
v 0.612 9.58 1.478
v 1.131 9.58 1.131
v 1.478 9.58 0.612
v 1.478 9.3 0.612
v 1.124 9.3 0.861
v 1.166 9.3 0.996
v 1.131 9.3 1.132
v 0 9.3 1.6
v 0.612 9.3 1.478
v 1 8.2 0.8
v 1.166 8.2 0.996
v 1.131 8.2 1.132
v 0 8.2 1.6
v 0.612 8.2 1.478
v 1.124 8.2 0.861
v -2.318 8.2 0.621
v -2.078 8.2 1.2
v -1.697 8.2 1.697
v -1.2 8.2 2.078
v -0.621 8.2 2.318
v 0 8.2 2.4
v -1 9.3 0.8
v -0.612 9.58 1.478
v -1.131 9.58 1.131
v -1.478 9.58 0.612
v -1.478 9.3 0.612
v -1.124 9.3 0.861
v -1.166 9.3 0.996
v -1.131 9.3 1.132
v -0.612 9.3 1.478
v -1 8.2 0.8
v -1.166 8.2 0.996
v -1.131 8.2 1.132
v -0.612 8.2 1.478
v 0 8.2 0.8
v -1.124 8.2 0.861
v -2.318 8.2 -0.621
v -2.078 8.2 -1.2
v -1.2 8.2 -2.078
v -0.621 8.2 -2.318
v 0 8.2 -2.4
v -1 9.3 -0.8
v -0.612 9.58 -1.478
v -1.131 9.58 -1.131
v -1.478 9.58 -0.612
v -1.6 9.58 0
v -1.6 9.3 0
v -1.478 9.3 -0.612
v -1.124 9.3 -0.861
v -1.166 9.3 -0.996
v -1.131 9.3 -1.132
v -0.612 9.3 -1.478
v -1 8.2 -0.8
v -1.166 8.2 -0.996
v -1.131 8.2 -1.132
v -0.612 8.2 -1.478
v -1.124 8.2 -0.861
v 1.697 8.2 -1.697
v 2.4 8.2 0
v 0 9.3 -0.8
v 1 9.3 -0.8
v 0 9.58 -1.6
v 0.612 9.58 -1.478
v 1.131 9.58 -1.131
v 1.478 9.58 -0.612
v 1.6 9.58 0
v 0 9.3 0
v 1.6 9.3 0
v 1.478 9.3 -0.612
v 1.124 9.3 -0.861
v 1.166 9.3 -0.996
v 1.131 9.3 -1.132
v 0 9.3 -1.6
v 0.612 9.3 -1.478
v 1 8.2 -0.8
v 1.166 8.2 -0.996
v 1.131 8.2 -1.132
v 0 8.2 -1.6
v 0.612 8.2 -1.478
v 0 8.2 -0.8
v 0 8.2 0
v 1.124 8.2 -0.861
v 2.318 0.02 0.621
v 2.078 0.02 1.2
v 3.139 0.02 0.841
v 2.815 0.02 1.625
v 3.139 1.1 0.841
v 2.815 1.1 1.625
v 2.318 8.2 0.621
v 2.078 8.2 1.2
v 2.298 1.1 2.298
v 1.697 0.02 1.697
v 1.697 8.2 1.697
v 2.298 0.02 2.298
v 1.2 0.02 2.078
v 1.625 0.02 2.815
v 1.625 1.1 2.815
v 1.2 8.2 2.078
v 0.841 1.1 3.139
v 0.621 0.02 2.318
v 0.621 8.2 2.318
v 0.841 0.02 3.139
v 0 0.02 2.4
v 0 0.02 3.25
v 0 1.1 3.25
v 3.25 0.02 0
v 2.4 0.02 0
v 3.25 1.1 0
v -2.318 0.02 0.621
v -2.078 0.02 1.2
v -3.139 0.02 0.841
v -2.815 0.02 1.625
v -3.139 1.1 0.841
v -2.815 1.1 1.625
v -2.298 1.1 2.298
v -1.697 0.02 1.697
v -2.298 0.02 2.298
v -1.2 0.02 2.078
v -1.625 0.02 2.815
v -1.625 1.1 2.815
v -0.841 1.1 3.139
v -0.621 0.02 2.318
v -0.841 0.02 3.139
v -3.25 0.02 0
v -2.4 0.02 0
v -3.25 1.1 0
v 2.318 0.02 -0.621
v 2.078 0.02 -1.2
v 3.139 0.02 -0.841
v 2.815 0.02 -1.625
v 3.139 1.1 -0.841
v 2.815 1.1 -1.625
v 2.318 8.2 -0.621
v 2.078 8.2 -1.2
v 2.298 1.1 -2.298
v 1.697 0.02 -1.697
v 2.298 0.02 -2.298
v 1.2 0.02 -2.078
v 1.625 0.02 -2.815
v 1.625 1.1 -2.815
v 0.841 1.1 -3.139
v 0.621 0.02 -2.318
v 1.2 8.2 -2.078
v 0.621 8.2 -2.318
v 0.841 0.02 -3.139
v 0 0.02 -2.4
v 0 0.02 -3.25
v 0 1.1 -3.25
v -2.318 0.02 -0.621
v -2.078 0.02 -1.2
v -3.139 0.02 -0.841
v -2.815 0.02 -1.625
v -3.139 1.1 -0.841
v -2.815 1.1 -1.625
v -2.298 1.1 -2.298
v -1.697 0.02 -1.697
v -2.298 0.02 -2.298
v -1.2 0.02 -2.078
v -1.625 0.02 -2.815
v -1.625 1.1 -2.815
v -0.841 1.1 -3.139
v -0.621 0.02 -2.318
v -0.841 0.02 -3.139
v 0 9.3 0.8
v 1 9.3 0.8
v 1.478 9.3 0.612
v 1.131 9.3 1.132
v 1.124 9.3 0.861
v 1.166 9.3 0.996
v 1.166 8.2 0.996
v 1.131 8.2 1.132
v 0.612 8.2 1.478
v 0 8.2 1.6
v 1 8.2 0.8
v 1.124 8.2 0.861
v -2.318 8.2 0.621
v -2.078 8.2 1.2
v -1.697 8.2 1.697
v -1.2 8.2 2.078
v -0.621 8.2 2.318
v 0 8.2 2.4
v -1.478 9.3 0.612
v -1.131 9.3 1.132
v -1 9.3 0.8
v -1.124 9.3 0.861
v -1.166 9.3 0.996
v -1.166 8.2 0.996
v -1.131 8.2 1.132
v -0.612 8.2 1.478
v 0 8.2 0.8
v -1 8.2 0.8
v -1.124 8.2 0.861
v -2.318 8.2 -0.621
v -2.078 8.2 -1.2
v -1.2 8.2 -2.078
v -0.621 8.2 -2.318
v 0 8.2 -2.4
v -1.478 9.3 -0.612
v -1.131 9.3 -1.132
v -1.6 9.3 0
v -1 9.3 -0.8
v -1.124 9.3 -0.861
v -1.166 9.3 -0.996
v -1.166 8.2 -0.996
v -1.131 8.2 -1.132
v -0.612 8.2 -1.478
v -1 8.2 -0.8
v -1.124 8.2 -0.861
v 0 9.3 -0.8
v 1 9.3 -0.8
v 1.478 9.3 -0.612
v 1.131 9.3 -1.132
v 1.6 9.3 0
v 1.124 9.3 -0.861
v 1.166 9.3 -0.996
v 1.166 8.2 -0.996
v 1.131 8.2 -1.132
v 0.612 8.2 -1.478
v 0 8.2 -1.6
v 0 8.2 -0.8
v 1 8.2 -0.8
v 1.124 8.2 -0.861
v 2.4 8.2 0
v -2.4 8.2 0
v 1.697 8.2 -1.697
v -1.697 8.2 -1.697
v 0.918 11.15 -2.217
v 0.821 11.4 -1.982
v 0.89 11.327 -2.148
v 1.517 11.4 -1.517
v 1.697 11.15 -1.697
v 1.644 11.327 -1.644
v 2.217 11.15 -0.918
v 1.982 11.4 -0.821
v 2.148 11.327 -0.89
v 2.145 11.4 0
v 2.4 11.15 0
v 2.325 11.327 0
v 2.217 11.15 0.918
v 1.982 11.4 0.821
v 2.148 11.327 0.89
v 1.697 11.15 1.697
v 1.517 11.4 1.517
v 1.644 11.327 1.644
v 0.918 11.15 2.217
v 0.821 11.4 1.982
v 0.89 11.327 2.148
v 0 11.15 2.4
v 0 11.4 2.145
v 0 11.327 2.325
v -0.821 11.4 1.982
v -0.918 11.15 2.217
v -0.89 11.327 2.148
v -1.697 11.15 1.697
v -1.517 11.4 1.517
v -1.644 11.327 1.644
v -2.217 11.15 0.918
v -1.982 11.4 0.821
v -2.148 11.327 0.89
v -2.4 11.15 0
v -2.145 11.4 0
v -2.325 11.327 0
v -2.217 11.15 -0.918
v -1.982 11.4 -0.821
v -2.148 11.327 -0.89
v -1.517 11.4 -1.517
v -1.697 11.15 -1.697
v -1.644 11.327 -1.644
v -0.918 11.15 -2.217
v -0.821 11.4 -1.982
v -0.89 11.327 -2.148
v 0 11.15 -2.4
v 0 11.4 -2.145
v 0 11.327 -2.325
v 0 9.73 -2.4
v 0 9.58 -2.553
v 0 9.624 -2.445
v -0.977 9.58 -2.359
v -0.918 9.73 -2.217
v -0.936 9.624 -2.259
v -1.805 9.58 -1.805
v -1.697 9.73 -1.697
v -1.729 9.624 -1.729
v -2.359 9.58 -0.977
v -2.217 9.73 -0.918
v -2.259 9.624 -0.936
v -2.553 9.58 0
v -2.4 9.73 0
v -2.445 9.624 0
v -2.359 9.58 0.977
v -2.217 9.73 0.918
v -2.259 9.624 0.936
v -1.805 9.58 1.805
v -1.697 9.73 1.697
v -1.729 9.624 1.729
v -0.977 9.58 2.359
v -0.918 9.73 2.217
v -0.936 9.624 2.259
v 0 9.58 2.553
v 0 9.73 2.4
v 0 9.624 2.445
v 0.977 9.58 2.359
v 0.918 9.73 2.217
v 0.936 9.624 2.259
v 1.805 9.58 1.805
v 1.697 9.73 1.697
v 1.729 9.624 1.729
v 2.359 9.58 0.977
v 2.217 9.73 0.918
v 2.259 9.624 0.936
v 2.553 9.58 0
v 2.4 9.73 0
v 2.445 9.624 0
v 2.359 9.58 -0.977
v 2.217 9.73 -0.918
v 2.259 9.624 -0.936
v 1.805 9.58 -1.805
v 1.697 9.73 -1.697
v 1.729 9.624 -1.729
v 0.977 9.58 -2.359
v 0.918 9.73 -2.217
v 0.936 9.624 -2.259
v 0 9.58 -1.6
v -0.612 9.58 -1.478
v -1.131 9.58 -1.131
v -1.478 9.58 -0.612
v -1.6 9.58 0
v -1.478 9.58 0.612
v -1.131 9.58 1.131
v -0.612 9.58 1.478
v 0 9.58 1.6
v 0.612 9.58 1.478
v 1.131 9.58 1.131
v 1.478 9.58 0.612
v 1.6 9.58 0
v 1.478 9.58 -0.612
v 1.131 9.58 -1.131
v 0.612 9.58 -1.478
v 0 11.2 -1.6
v 0 11.4 -1.804
v 0 11.341 -1.66
v -0.69 11.4 -1.667
v -0.612 11.2 -1.478
v -0.635 11.341 -1.533
v -1.276 11.4 -1.276
v -1.131 11.2 -1.131
v -1.174 11.341 -1.174
v -1.667 11.4 -0.69
v -1.478 11.2 -0.612
v -1.533 11.341 -0.635
v -1.804 11.4 0
v -1.6 11.2 0
v -1.66 11.341 0
v -1.667 11.4 0.69
v -1.478 11.2 0.612
v -1.533 11.341 0.635
v -1.276 11.4 1.276
v -1.131 11.2 1.131
v -1.174 11.341 1.174
v -0.69 11.4 1.667
v -0.612 11.2 1.478
v -0.635 11.341 1.533
v 0 11.4 1.804
v 0 11.2 1.6
v 0 11.341 1.66
v 0.69 11.4 1.667
v 0.612 11.2 1.478
v 0.635 11.341 1.533
v 1.276 11.4 1.276
v 1.131 11.2 1.131
v 1.174 11.341 1.174
v 1.667 11.4 0.69
v 1.478 11.2 0.612
v 1.533 11.341 0.635
v 1.804 11.4 0
v 1.6 11.2 0
v 1.66 11.341 0
v 1.667 11.4 -0.69
v 1.478 11.2 -0.612
v 1.533 11.341 -0.635
v 1.276 11.4 -1.276
v 1.131 11.2 -1.131
v 1.174 11.341 -1.174
v 0.69 11.4 -1.667
v 0.612 11.2 -1.478
v 0.635 11.341 -1.533
v -0.884 9.39 0.508
v -0.847 9.3 0.517
v -0.64 9.3 -0.386
v -1.151 9.3 -0.504
v -1.115 9.39 -0.496
v -0.921 9.39 0.5
v -1.078 9.39 -0.487
v -0.957 9.3 0.491
v -0.749 9.3 -0.411
v -1.041 9.3 -0.479
v -1.249 9.3 0.424
v -0.938 9.39 0.611
v -0.911 9.3 0.637
v -0.966 9.39 0.585
v -0.993 9.3 0.56
v -1.037 9.39 0.673
v -1.027 9.3 0.709
v -1.048 9.39 0.637
v -1.059 9.3 0.601
v -1.154 9.39 0.677
v -1.162 9.3 0.713
v -1.145 9.39 0.64
v -1.137 9.3 0.604
v -1.257 9.39 0.622
v -1.282 9.3 0.649
v -1.231 9.39 0.594
v -1.205 9.3 0.567
v -1.319 9.39 0.523
v -1.354 9.3 0.534
v -1.282 9.39 0.512
v -1.247 9.3 0.501
v -1.323 9.39 0.407
v -1.359 9.3 0.398
v -1.286 9.39 0.415
v -1.087 9.3 -0.624
v -1.06 9.39 -0.599
v -1.032 9.39 -0.573
v -1.005 9.3 -0.548
v -0.972 9.3 -0.696
v -0.961 9.39 -0.661
v -0.95 9.39 -0.624
v -0.939 9.3 -0.589
v -0.836 9.3 -0.701
v -0.845 9.39 -0.665
v -0.853 9.39 -0.628
v -0.861 9.3 -0.591
v -0.716 9.3 -0.637
v -0.742 9.39 -0.61
v -0.767 9.39 -0.582
v -0.793 9.3 -0.555
v -0.644 9.3 -0.522
v -0.68 9.39 -0.511
v -0.716 9.39 -0.5
v -0.752 9.3 -0.489
v -0.676 9.39 -0.394
v -0.713 9.39 -0.403
v 0.893 9.39 -0.633
v 0.893 9.3 -0.596
v 1.245 9.3 -0.596
v 1.292 9.39 -0.633
v 0.958 9.3 0.652
v 0.995 9.39 0.66
v 1.003 9.39 0.681
v 0.984 9.3 0.713
v 1.018 9.3 0.72
v 1.015 9.39 0.683
v 1.025 9.39 0.679
v 1.05 9.3 0.707
v 1.068 9.3 0.677
v 1.031 9.39 0.669
v 1.316 9.3 -0.708
v 1.316 9.39 -0.671
v 0.881 9.39 -0.637
v 0.859 9.3 -0.606
v 0.875 9.39 -0.646
v 0.839 9.3 -0.635
v 0.875 9.39 -0.658
v 0.839 9.3 -0.669
v 0.881 9.39 -0.667
v 0.859 9.3 -0.698
v 0.893 9.39 -0.671
v 0.893 9.3 -0.708
v 0.996 9.39 0.672
v 0.961 9.3 0.686
v 1.341 9.3 -0.703
v 1.324 9.39 -0.669
v 1.36 9.3 -0.687
v 1.331 9.39 -0.664
v 1.371 9.3 -0.665
v 1.335 9.39 -0.656
v 1.371 9.3 -0.639
v 1.335 9.39 -0.648
v 0 9.3 0.5
v 0.25 9.3 0.433
v 0.433 9.3 0.25
v 0.5 9.3 0
v 0.433 9.3 -0.25
v 0.25 9.3 -0.433
v 0 9.3 -0.5
v -0.25 9.3 -0.433
v -0.433 9.3 -0.25
v -0.5 9.3 0
v -0.433 9.3 0.25
v -0.25 9.3 0.433
v 0 9.34 0.39
v 0.195 9.34 0.338
v 0.338 9.34 0.195
v 0.39 9.34 0
v 0.338 9.34 -0.195
v 0.195 9.34 -0.338
v 0 9.34 -0.39
v -0.195 9.34 -0.338
v -0.338 9.34 -0.195
v -0.39 9.34 0
v -0.338 9.34 0.195
v -0.195 9.34 0.338
v 0 9.414 0.213
v 0.106 9.414 0.184
v 0.184 9.414 0.106
v 0.213 9.414 0
v 0.184 9.414 -0.106
v 0.106 9.414 -0.184
v 0 9.414 -0.213
v -0.106 9.414 -0.184
v -0.184 9.414 -0.106
v -0.213 9.414 0
v -0.184 9.414 0.106
v -0.106 9.414 0.184
v 0 9.468 0
v 1.245 9.3 -0.596
vt 0.896 0.795
vt 0.863 0.795
vt 0.896 0.735
vt 0.863 0.795
vt 0.863 0.735
vt 0.896 0.735
vt 0.863 0.856
vt 0.863 0.795
vt 0.896 0.856
vt 0.863 0.795
vt 0.896 0.795
vt 0.896 0.856
vt 0.896 0.856
vt 0.896 0.918
vt 0.863 0.856
vt 0.896 0.918
vt 0.863 0.918
vt 0.863 0.856
vt 0 0
vt 0 0
vt 0 0
vt 0 0
vt 0 0
vt 0 0
vt 0 0
vt 0 0
vt 0 0
vt 0 0
vt 0 0
vt 0 0
vt 0 0
vt 0 0
vt 0 0
vt 0 0
vt 0 0
vt 0 0
vt 0 0
vt 0 0
vt 0 0
vt 0 0
vt 0 0
vt 0 0
vt 0 0
vt 0 0
vt 0 0
vt 0 0
vt 0 0
vt 0 0
vt 0.896 0.066
vt 0.896 0.128
vt 0.863 0.066
vt 0.896 0.128
vt 0.863 0.128
vt 0.863 0.066
vt 0.896 0.128
vt 0.896 0.189
vt 0.863 0.128
vt 0.896 0.189
vt 0.863 0.189
vt 0.863 0.128
vt 0.896 0.189
vt 0.896 0.249
vt 0.863 0.189
vt 0.896 0.249
vt 0.863 0.249
vt 0.863 0.189
vt 0 0
vt 0 0
vt 0 0
vt 0 0
vt 0 0
vt 0 0
vt 0.896 0.253
vt 0.863 0.253
vt 0.896 0.249
vt 0.863 0.253
vt 0.863 0.249
vt 0.896 0.249
vt 0 0
vt 0 0
vt 0 0
vt 0 0
vt 0 0
vt 0 0
vt 0 0
vt 0 0
vt 0 0
vt 0 0
vt 0 0
vt 0 0
vt 0 0
vt 0 0
vt 0 0
vt 0 0
vt 0 0
vt 0 0
vt 0 0
vt 0 0
vt 0 0
vt 0 0
vt 0 0
vt 0 0
vt 0.863 0.253
vt 0.831 0.253
vt 0.863 0.249
vt 0.831 0.253
vt 0.831 0.249
vt 0.863 0.249
vt 0 0
vt 0 0
vt 0 0
vt 0 0
vt 0 0
vt 0 0
vt 0.863 0.189
vt 0.863 0.249
vt 0.831 0.189
vt 0.863 0.249
vt 0.831 0.249
vt 0.831 0.189
vt 0.863 0.128
vt 0.863 0.189
vt 0.831 0.128
vt 0.863 0.189
vt 0.831 0.189
vt 0.831 0.128
vt 0.863 0.066
vt 0.863 0.128
vt 0.831 0.066
vt 0.863 0.128
vt 0.831 0.128
vt 0.831 0.066
vt 0 0
vt 0 0
vt 0 0
vt 0 0
vt 0 0
vt 0 0
vt 0 0
vt 0 0
vt 0 0
vt 0 0
vt 0 0
vt 0 0
vt 0 0
vt 0 0
vt 0 0
vt 0 0
vt 0 0
vt 0 0
vt 0 0
vt 0 0
vt 0 0
vt 0 0
vt 0 0
vt 0 0
vt 0 0
vt 0 0
vt 0 0
vt 0 0
vt 0 0
vt 0 0
vt 0.863 0.856
vt 0.863 0.918
vt 0.831 0.856
vt 0.863 0.918
vt 0.831 0.918
vt 0.831 0.856
vt 0.863 0.795
vt 0.863 0.856
vt 0.831 0.795
vt 0.863 0.856
vt 0.831 0.856
vt 0.831 0.795
vt 0.863 0.795
vt 0.831 0.795
vt 0.863 0.735
vt 0.831 0.795
vt 0.831 0.735
vt 0.863 0.735
vt 0.831 0.795
vt 0.799 0.795
vt 0.831 0.735
vt 0.799 0.795
vt 0.799 0.735
vt 0.831 0.735
vt 0.831 0.795
vt 0.831 0.856
vt 0.799 0.795
vt 0.831 0.856
vt 0.799 0.856
vt 0.799 0.795
vt 0.831 0.856
vt 0.831 0.918
vt 0.799 0.856
vt 0.831 0.918
vt 0.799 0.918
vt 0.799 0.856
vt 0 0
vt 0 0
vt 0 0
vt 0 0
vt 0 0
vt 0 0
vt 0 0
vt 0 0
vt 0 0
vt 0 0
vt 0 0
vt 0 0
vt 0 0
vt 0 0
vt 0 0
vt 0 0
vt 0 0
vt 0 0
vt 0 0
vt 0 0
vt 0 0
vt 0 0
vt 0 0
vt 0 0
vt 0 0
vt 0 0
vt 0 0
vt 0 0
vt 0 0
vt 0 0
vt 0.831 0.066
vt 0.831 0.128
vt 0.799 0.066
vt 0.831 0.128
vt 0.799 0.128
vt 0.799 0.066
vt 0.831 0.128
vt 0.831 0.189
vt 0.799 0.128
vt 0.831 0.189
vt 0.799 0.189
vt 0.799 0.128
vt 0.831 0.189
vt 0.831 0.249
vt 0.799 0.189
vt 0.831 0.249
vt 0.799 0.249
vt 0.799 0.189
vt 0 0
vt 0 0
vt 0 0
vt 0 0
vt 0 0
vt 0 0
vt 0.831 0.253
vt 0.799 0.253
vt 0.831 0.249
vt 0.799 0.253
vt 0.799 0.249
vt 0.831 0.249
vt 0 0
vt 0 0
vt 0 0
vt 0 0
vt 0 0
vt 0 0
vt 0 0
vt 0 0
vt 0 0
vt 0 0
vt 0 0
vt 0 0
vt 0 0
vt 0 0
vt 0 0
vt 0 0
vt 0 0
vt 0 0
vt 0 0
vt 0 0
vt 0 0
vt 0 0
vt 0 0
vt 0 0
vt 0.799 0.253
vt 0.766 0.253
vt 0.799 0.249
vt 0.766 0.253
vt 0.766 0.249
vt 0.799 0.249
vt 0 0
vt 0 0
vt 0 0
vt 0 0
vt 0 0
vt 0 0
vt 0.799 0.189
vt 0.799 0.249
vt 0.766 0.189
vt 0.799 0.249
vt 0.766 0.249
vt 0.766 0.189
vt 0.799 0.128
vt 0.799 0.189
vt 0.766 0.128
vt 0.799 0.189
vt 0.766 0.189
vt 0.766 0.128
vt 0.799 0.066
vt 0.799 0.128
vt 0.766 0.066
vt 0.799 0.128
vt 0.766 0.128
vt 0.766 0.066
vt 0 0
vt 0 0
vt 0 0
vt 0 0
vt 0 0
vt 0 0
vt 0 0
vt 0 0
vt 0 0
vt 0 0
vt 0 0
vt 0 0
vt 0 0
vt 0 0
vt 0 0
vt 0 0
vt 0 0
vt 0 0
vt 0 0
vt 0 0
vt 0 0
vt 0 0
vt 0 0
vt 0 0
vt 0 0
vt 0 0
vt 0 0
vt 0 0
vt 0 0
vt 0 0
vt 0.799 0.856
vt 0.799 0.918
vt 0.766 0.856
vt 0.799 0.918
vt 0.766 0.918
vt 0.766 0.856
vt 0.799 0.795
vt 0.799 0.856
vt 0.766 0.795
vt 0.799 0.856
vt 0.766 0.856
vt 0.766 0.795
vt 0.799 0.795
vt 0.766 0.795
vt 0.799 0.735
vt 0.766 0.795
vt 0.766 0.735
vt 0.799 0.735
vt 0.766 0.795
vt 0.733 0.795
vt 0.766 0.735
vt 0.733 0.795
vt 0.733 0.735
vt 0.766 0.735
vt 0.766 0.795
vt 0.766 0.856
vt 0.733 0.795
vt 0.766 0.856
vt 0.733 0.856
vt 0.733 0.795
vt 0.766 0.856
vt 0.766 0.918
vt 0.733 0.856
vt 0.766 0.918
vt 0.733 0.918
vt 0.733 0.856
vt 0 0
vt 0 0
vt 0 0
vt 0 0
vt 0 0
vt 0 0
vt 0 0
vt 0 0
vt 0 0
vt 0 0
vt 0 0
vt 0 0
vt 0 0
vt 0 0
vt 0 0
vt 0 0
vt 0 0
vt 0 0
vt 0 0
vt 0 0
vt 0 0
vt 0 0
vt 0 0
vt 0 0
vt 0 0
vt 0 0
vt 0 0
vt 0 0
vt 0 0
vt 0 0
vt 0.766 0.066
vt 0.766 0.128
vt 0.733 0.066
vt 0.766 0.128
vt 0.733 0.128
vt 0.733 0.066
vt 0.766 0.128
vt 0.766 0.189
vt 0.733 0.128
vt 0.766 0.189
vt 0.733 0.189
vt 0.733 0.128
vt 0.766 0.189
vt 0.766 0.249
vt 0.733 0.189
vt 0.766 0.249
vt 0.733 0.249
vt 0.733 0.189
vt 0 0
vt 0 0
vt 0 0
vt 0 0
vt 0 0
vt 0 0
vt 0.766 0.253
vt 0.733 0.253
vt 0.766 0.249
vt 0.733 0.253
vt 0.733 0.249
vt 0.766 0.249
vt 0 0
vt 0 0
vt 0 0
vt 0 0
vt 0 0
vt 0 0
vt 0 0
vt 0 0
vt 0 0
vt 0 0
vt 0 0
vt 0 0
vt 0 0
vt 0 0
vt 0 0
vt 0 0
vt 0 0
vt 0 0
vt 0 0
vt 0 0
vt 0 0
vt 0 0
vt 0 0
vt 0 0
vt 0.733 0.253
vt 0.699 0.253
vt 0.733 0.249
vt 0.699 0.253
vt 0.699 0.249
vt 0.733 0.249
vt 0 0
vt 0 0
vt 0 0
vt 0 0
vt 0 0
vt 0 0
vt 0.733 0.189
vt 0.733 0.249
vt 0.699 0.189
vt 0.733 0.249
vt 0.699 0.249
vt 0.699 0.189
vt 0.733 0.128
vt 0.733 0.189
vt 0.699 0.128
vt 0.733 0.189
vt 0.699 0.189
vt 0.699 0.128
vt 0.733 0.066
vt 0.733 0.128
vt 0.699 0.066
vt 0.733 0.128
vt 0.699 0.128
vt 0.699 0.066
vt 0 0
vt 0 0
vt 0 0
vt 0 0
vt 0 0
vt 0 0
vt 0 0
vt 0 0
vt 0 0
vt 0 0
vt 0 0
vt 0 0
vt 0 0
vt 0 0
vt 0 0
vt 0 0
vt 0 0
vt 0 0
vt 0 0
vt 0 0
vt 0 0
vt 0 0
vt 0 0
vt 0 0
vt 0 0
vt 0 0
vt 0 0
vt 0 0
vt 0 0
vt 0 0
vt 0.733 0.856
vt 0.733 0.918
vt 0.699 0.856
vt 0.733 0.918
vt 0.699 0.918
vt 0.699 0.856
vt 0.733 0.795
vt 0.733 0.856
vt 0.699 0.795
vt 0.733 0.856
vt 0.699 0.856
vt 0.699 0.795
vt 0.733 0.795
vt 0.699 0.795
vt 0.733 0.735
vt 0.699 0.795
vt 0.699 0.735
vt 0.733 0.735
vt 0.733 0.735
vt 0.699 0.735
vt 0.733 0.729
vt 0.699 0.735
vt 0.699 0.729
vt 0.733 0.729
vt 0.766 0.735
vt 0.733 0.735
vt 0.766 0.729
vt 0.733 0.735
vt 0.733 0.729
vt 0.766 0.729
vt 0.799 0.735
vt 0.766 0.735
vt 0.799 0.729
vt 0.766 0.735
vt 0.766 0.729
vt 0.799 0.729
vt 0.831 0.735
vt 0.799 0.735
vt 0.831 0.729
vt 0.799 0.735
vt 0.799 0.729
vt 0.831 0.729
vt 0.863 0.735
vt 0.831 0.735
vt 0.863 0.729
vt 0.831 0.735
vt 0.831 0.729
vt 0.863 0.729
vt 0.896 0.735
vt 0.863 0.735
vt 0.896 0.729
vt 0.863 0.735
vt 0.863 0.729
vt 0.896 0.729
vt 0.733 0.729
vt 0.699 0.729
vt 0.733 0.253
vt 0.699 0.729
vt 0.699 0.253
vt 0.733 0.253
vt 0.766 0.729
vt 0.733 0.729
vt 0.766 0.253
vt 0.733 0.729
vt 0.733 0.253
vt 0.766 0.253
vt 0.799 0.729
vt 0.766 0.729
vt 0.799 0.253
vt 0.766 0.729
vt 0.766 0.253
vt 0.799 0.253
vt 0.831 0.729
vt 0.799 0.729
vt 0.831 0.253
vt 0.799 0.729
vt 0.799 0.253
vt 0.831 0.253
vt 0.863 0.729
vt 0.831 0.729
vt 0.863 0.253
vt 0.831 0.729
vt 0.831 0.253
vt 0.863 0.253
vt 0.896 0.729
vt 0.863 0.729
vt 0.896 0.253
vt 0.863 0.729
vt 0.863 0.253
vt 0.896 0.253
vt 0.495 0.795
vt 0.495 0.735
vt 0.529 0.795
vt 0.495 0.735
vt 0.529 0.735
vt 0.529 0.795
vt 0.495 0.795
vt 0.529 0.795
vt 0.495 0.856
vt 0.529 0.795
vt 0.529 0.856
vt 0.495 0.856
vt 0.495 0.856
vt 0.529 0.856
vt 0.495 0.918
vt 0.529 0.856
vt 0.529 0.918
vt 0.495 0.918
vt 0 0
vt 0 0
vt 0 0
vt 0 0
vt 0 0
vt 0 0
vt 0 0
vt 0 0
vt 0 0
vt 0 0
vt 0 0
vt 0 0
vt 0 0
vt 0 0
vt 0 0
vt 0 0
vt 0 0
vt 0 0
vt 0 0
vt 0 0
vt 0 0
vt 0 0
vt 0 0
vt 0 0
vt 0 0
vt 0 0
vt 0 0
vt 0 0
vt 0 0
vt 0 0
vt 0.495 0.066
vt 0.529 0.066
vt 0.495 0.128
vt 0.529 0.066
vt 0.529 0.128
vt 0.495 0.128
vt 0.495 0.128
vt 0.529 0.128
vt 0.495 0.189
vt 0.529 0.128
vt 0.529 0.189
vt 0.495 0.189
vt 0.495 0.189
vt 0.529 0.189
vt 0.495 0.249
vt 0.529 0.189
vt 0.529 0.249
vt 0.495 0.249
vt 0 0
vt 0 0
vt 0 0
vt 0 0
vt 0 0
vt 0 0
vt 0.495 0.253
vt 0.495 0.249
vt 0.529 0.253
vt 0.495 0.249
vt 0.529 0.249
vt 0.529 0.253
vt 0 0
vt 0 0
vt 0 0
vt 0 0
vt 0 0
vt 0 0
vt 0 0
vt 0 0
vt 0 0
vt 0 0
vt 0 0
vt 0 0
vt 0 0
vt 0 0
vt 0 0
vt 0 0
vt 0 0
vt 0 0
vt 0 0
vt 0 0
vt 0 0
vt 0 0
vt 0 0
vt 0 0
vt 0.529 0.253
vt 0.529 0.249
vt 0.564 0.253
vt 0.529 0.249
vt 0.564 0.249
vt 0.564 0.253
vt 0 0
vt 0 0
vt 0 0
vt 0 0
vt 0 0
vt 0 0
vt 0.529 0.189
vt 0.564 0.189
vt 0.529 0.249
vt 0.564 0.189
vt 0.564 0.249
vt 0.529 0.249
vt 0.529 0.128
vt 0.564 0.128
vt 0.529 0.189
vt 0.564 0.128
vt 0.564 0.189
vt 0.529 0.189
vt 0.529 0.066
vt 0.564 0.066
vt 0.529 0.128
vt 0.564 0.066
vt 0.564 0.128
vt 0.529 0.128
vt 0 0
vt 0 0
vt 0 0
vt 0 0
vt 0 0
vt 0 0
vt 0 0
vt 0 0
vt 0 0
vt 0 0
vt 0 0
vt 0 0
vt 0 0
vt 0 0
vt 0 0
vt 0 0
vt 0 0
vt 0 0
vt 0 0
vt 0 0
vt 0 0
vt 0 0
vt 0 0
vt 0 0
vt 0 0
vt 0 0
vt 0 0
vt 0 0
vt 0 0
vt 0 0
vt 0.529 0.856
vt 0.564 0.856
vt 0.529 0.918
vt 0.564 0.856
vt 0.564 0.918
vt 0.529 0.918
vt 0.529 0.795
vt 0.564 0.795
vt 0.529 0.856
vt 0.564 0.795
vt 0.564 0.856
vt 0.529 0.856
vt 0.529 0.795
vt 0.529 0.735
vt 0.564 0.795
vt 0.529 0.735
vt 0.564 0.735
vt 0.564 0.795
vt 0.564 0.795
vt 0.564 0.735
vt 0.598 0.795
vt 0.564 0.735
vt 0.598 0.735
vt 0.598 0.795
vt 0.564 0.795
vt 0.598 0.795
vt 0.564 0.856
vt 0.598 0.795
vt 0.598 0.856
vt 0.564 0.856
vt 0.564 0.856
vt 0.598 0.856
vt 0.564 0.918
vt 0.598 0.856
vt 0.598 0.918
vt 0.564 0.918
vt 0 0
vt 0 0
vt 0 0
vt 0 0
vt 0 0
vt 0 0
vt 0 0
vt 0 0
vt 0 0
vt 0 0
vt 0 0
vt 0 0
vt 0 0
vt 0 0
vt 0 0
vt 0 0
vt 0 0
vt 0 0
vt 0 0
vt 0 0
vt 0 0
vt 0 0
vt 0 0
vt 0 0
vt 0 0
vt 0 0
vt 0 0
vt 0 0
vt 0 0
vt 0 0
vt 0.564 0.066
vt 0.598 0.066
vt 0.564 0.128
vt 0.598 0.066
vt 0.598 0.128
vt 0.564 0.128
vt 0.564 0.128
vt 0.598 0.128
vt 0.564 0.189
vt 0.598 0.128
vt 0.598 0.189
vt 0.564 0.189
vt 0.564 0.189
vt 0.598 0.189
vt 0.564 0.249
vt 0.598 0.189
vt 0.598 0.249
vt 0.564 0.249
vt 0 0
vt 0 0
vt 0 0
vt 0 0
vt 0 0
vt 0 0
vt 0.564 0.253
vt 0.564 0.249
vt 0.598 0.253
vt 0.564 0.249
vt 0.598 0.249
vt 0.598 0.253
vt 0 0
vt 0 0
vt 0 0
vt 0 0
vt 0 0
vt 0 0
vt 0 0
vt 0 0
vt 0 0
vt 0 0
vt 0 0
vt 0 0
vt 0 0
vt 0 0
vt 0 0
vt 0 0
vt 0 0
vt 0 0
vt 0 0
vt 0 0
vt 0 0
vt 0 0
vt 0 0
vt 0 0
vt 0.598 0.253
vt 0.598 0.249
vt 0.632 0.253
vt 0.598 0.249
vt 0.632 0.249
vt 0.632 0.253
vt 0 0
vt 0 0
vt 0 0
vt 0 0
vt 0 0
vt 0 0
vt 0.598 0.189
vt 0.632 0.189
vt 0.598 0.249
vt 0.632 0.189
vt 0.632 0.249
vt 0.598 0.249
vt 0.598 0.128
vt 0.632 0.128
vt 0.598 0.189
vt 0.632 0.128
vt 0.632 0.189
vt 0.598 0.189
vt 0.598 0.066
vt 0.632 0.066
vt 0.598 0.128
vt 0.632 0.066
vt 0.632 0.128
vt 0.598 0.128
vt 0 0
vt 0 0
vt 0 0
vt 0 0
vt 0 0
vt 0 0
vt 0 0
vt 0 0
vt 0 0
vt 0 0
vt 0 0
vt 0 0
vt 0 0
vt 0 0
vt 0 0
vt 0 0
vt 0 0
vt 0 0
vt 0 0
vt 0 0
vt 0 0
vt 0 0
vt 0 0
vt 0 0
vt 0 0
vt 0 0
vt 0 0
vt 0 0
vt 0 0
vt 0 0
vt 0.598 0.856
vt 0.632 0.856
vt 0.598 0.918
vt 0.632 0.856
vt 0.632 0.918
vt 0.598 0.918
vt 0.598 0.795
vt 0.632 0.795
vt 0.598 0.856
vt 0.632 0.795
vt 0.632 0.856
vt 0.598 0.856
vt 0.598 0.795
vt 0.598 0.735
vt 0.632 0.795
vt 0.598 0.735
vt 0.632 0.735
vt 0.632 0.795
vt 0.632 0.795
vt 0.632 0.735
vt 0.666 0.795
vt 0.632 0.735
vt 0.666 0.735
vt 0.666 0.795
vt 0.632 0.795
vt 0.666 0.795
vt 0.632 0.856
vt 0.666 0.795
vt 0.666 0.856
vt 0.632 0.856
vt 0.632 0.856
vt 0.666 0.856
vt 0.632 0.918
vt 0.666 0.856
vt 0.666 0.918
vt 0.632 0.918
vt 0 0
vt 0 0
vt 0 0
vt 0 0
vt 0 0
vt 0 0
vt 0 0
vt 0 0
vt 0 0
vt 0 0
vt 0 0
vt 0 0
vt 0 0
vt 0 0
vt 0 0
vt 0 0
vt 0 0
vt 0 0
vt 0 0
vt 0 0
vt 0 0
vt 0 0
vt 0 0
vt 0 0
vt 0 0
vt 0 0
vt 0 0
vt 0 0
vt 0 0
vt 0 0
vt 0.632 0.066
vt 0.666 0.066
vt 0.632 0.128
vt 0.666 0.066
vt 0.666 0.128
vt 0.632 0.128
vt 0.632 0.128
vt 0.666 0.128
vt 0.632 0.189
vt 0.666 0.128
vt 0.666 0.189
vt 0.632 0.189
vt 0.632 0.189
vt 0.666 0.189
vt 0.632 0.249
vt 0.666 0.189
vt 0.666 0.249
vt 0.632 0.249
vt 0 0
vt 0 0
vt 0 0
vt 0 0
vt 0 0
vt 0 0
vt 0.632 0.253
vt 0.632 0.249
vt 0.666 0.253
vt 0.632 0.249
vt 0.666 0.249
vt 0.666 0.253
vt 0 0
vt 0 0
vt 0 0
vt 0 0
vt 0 0
vt 0 0
vt 0 0
vt 0 0
vt 0 0
vt 0 0
vt 0 0
vt 0 0
vt 0 0
vt 0 0
vt 0 0
vt 0 0
vt 0 0
vt 0 0
vt 0 0
vt 0 0
vt 0 0
vt 0 0
vt 0 0
vt 0 0
vt 0.666 0.253
vt 0.666 0.249
vt 0.699 0.253
vt 0.666 0.249
vt 0.699 0.249
vt 0.699 0.253
vt 0 0
vt 0 0
vt 0 0
vt 0 0
vt 0 0
vt 0 0
vt 0.666 0.189
vt 0.699 0.189
vt 0.666 0.249
vt 0.699 0.189
vt 0.699 0.249
vt 0.666 0.249
vt 0.666 0.128
vt 0.699 0.128
vt 0.666 0.189
vt 0.699 0.128
vt 0.699 0.189
vt 0.666 0.189
vt 0.666 0.066
vt 0.699 0.066
vt 0.666 0.128
vt 0.699 0.066
vt 0.699 0.128
vt 0.666 0.128
vt 0 0
vt 0 0
vt 0 0
vt 0 0
vt 0 0
vt 0 0
vt 0 0
vt 0 0
vt 0 0
vt 0 0
vt 0 0
vt 0 0
vt 0 0
vt 0 0
vt 0 0
vt 0 0
vt 0 0
vt 0 0
vt 0 0
vt 0 0
vt 0 0
vt 0 0
vt 0 0
vt 0 0
vt 0 0
vt 0 0
vt 0 0
vt 0 0
vt 0 0
vt 0 0
vt 0.666 0.856
vt 0.699 0.856
vt 0.666 0.918
vt 0.699 0.856
vt 0.699 0.918
vt 0.666 0.918
vt 0.666 0.795
vt 0.699 0.795
vt 0.666 0.856
vt 0.699 0.795
vt 0.699 0.856
vt 0.666 0.856
vt 0.666 0.795
vt 0.666 0.735
vt 0.699 0.795
vt 0.666 0.735
vt 0.699 0.735
vt 0.699 0.795
vt 0.666 0.735
vt 0.666 0.729
vt 0.699 0.735
vt 0.666 0.729
vt 0.699 0.729
vt 0.699 0.735
vt 0.632 0.735
vt 0.632 0.729
vt 0.666 0.735
vt 0.632 0.729
vt 0.666 0.729
vt 0.666 0.735
vt 0.598 0.735
vt 0.598 0.729
vt 0.632 0.735
vt 0.598 0.729
vt 0.632 0.729
vt 0.632 0.735
vt 0.564 0.735
vt 0.564 0.729
vt 0.598 0.735
vt 0.564 0.729
vt 0.598 0.729
vt 0.598 0.735
vt 0.529 0.735
vt 0.529 0.729
vt 0.564 0.735
vt 0.529 0.729
vt 0.564 0.729
vt 0.564 0.735
vt 0.495 0.735
vt 0.495 0.729
vt 0.529 0.735
vt 0.495 0.729
vt 0.529 0.729
vt 0.529 0.735
vt 0.666 0.729
vt 0.666 0.253
vt 0.699 0.729
vt 0.666 0.253
vt 0.699 0.253
vt 0.699 0.729
vt 0.632 0.729
vt 0.632 0.253
vt 0.666 0.729
vt 0.632 0.253
vt 0.666 0.253
vt 0.666 0.729
vt 0.598 0.729
vt 0.598 0.253
vt 0.632 0.729
vt 0.598 0.253
vt 0.632 0.253
vt 0.632 0.729
vt 0.564 0.729
vt 0.564 0.253
vt 0.598 0.729
vt 0.564 0.253
vt 0.598 0.253
vt 0.598 0.729
vt 0.529 0.729
vt 0.529 0.253
vt 0.564 0.729
vt 0.529 0.253
vt 0.564 0.253
vt 0.564 0.729
vt 0.495 0.729
vt 0.495 0.253
vt 0.529 0.729
vt 0.495 0.253
vt 0.529 0.253
vt 0.529 0.729
vt 0.096 0.795
vt 0.096 0.735
vt 0.128 0.795
vt 0.096 0.735
vt 0.128 0.735
vt 0.128 0.795
vt 0.096 0.795
vt 0.128 0.795
vt 0.096 0.856
vt 0.128 0.795
vt 0.128 0.856
vt 0.096 0.856
vt 0.096 0.856
vt 0.128 0.856
vt 0.096 0.918
vt 0.128 0.856
vt 0.128 0.918
vt 0.096 0.918
vt 0 0
vt 0 0
vt 0 0
vt 0 0
vt 0 0
vt 0 0
vt 0 0
vt 0 0
vt 0 0
vt 0 0
vt 0 0
vt 0 0
vt 0 0
vt 0 0
vt 0 0
vt 0 0
vt 0 0
vt 0 0
vt 0 0
vt 0 0
vt 0 0
vt 0 0
vt 0 0
vt 0 0
vt 0 0
vt 0 0
vt 0 0
vt 0 0
vt 0 0
vt 0 0
vt 0.096 0.066
vt 0.128 0.066
vt 0.096 0.128
vt 0.128 0.066
vt 0.128 0.128
vt 0.096 0.128
vt 0.096 0.128
vt 0.128 0.128
vt 0.096 0.189
vt 0.128 0.128
vt 0.128 0.189
vt 0.096 0.189
vt 0.096 0.189
vt 0.128 0.189
vt 0.096 0.249
vt 0.128 0.189
vt 0.128 0.249
vt 0.096 0.249
vt 0 0
vt 0 0
vt 0 0
vt 0 0
vt 0 0
vt 0 0
vt 0.096 0.253
vt 0.096 0.249
vt 0.128 0.253
vt 0.096 0.249
vt 0.128 0.249
vt 0.128 0.253
vt 0 0
vt 0 0
vt 0 0
vt 0 0
vt 0 0
vt 0 0
vt 0 0
vt 0 0
vt 0 0
vt 0 0
vt 0 0
vt 0 0
vt 0 0
vt 0 0
vt 0 0
vt 0 0
vt 0 0
vt 0 0
vt 0 0
vt 0 0
vt 0 0
vt 0 0
vt 0 0
vt 0 0
vt 0.128 0.253
vt 0.128 0.249
vt 0.161 0.253
vt 0.128 0.249
vt 0.161 0.249
vt 0.161 0.253
vt 0 0
vt 0 0
vt 0 0
vt 0 0
vt 0 0
vt 0 0
vt 0.128 0.189
vt 0.161 0.189
vt 0.128 0.249
vt 0.161 0.189
vt 0.161 0.249
vt 0.128 0.249
vt 0.128 0.128
vt 0.161 0.128
vt 0.128 0.189
vt 0.161 0.128
vt 0.161 0.189
vt 0.128 0.189
vt 0.128 0.066
vt 0.161 0.066
vt 0.128 0.128
vt 0.161 0.066
vt 0.161 0.128
vt 0.128 0.128
vt 0 0
vt 0 0
vt 0 0
vt 0 0
vt 0 0
vt 0 0
vt 0 0
vt 0 0
vt 0 0
vt 0 0
vt 0 0
vt 0 0
vt 0 0
vt 0 0
vt 0 0
vt 0 0
vt 0 0
vt 0 0
vt 0 0
vt 0 0
vt 0 0
vt 0 0
vt 0 0
vt 0 0
vt 0 0
vt 0 0
vt 0 0
vt 0 0
vt 0 0
vt 0 0
vt 0.128 0.856
vt 0.161 0.856
vt 0.128 0.918
vt 0.161 0.856
vt 0.161 0.918
vt 0.128 0.918
vt 0.128 0.795
vt 0.161 0.795
vt 0.128 0.856
vt 0.161 0.795
vt 0.161 0.856
vt 0.128 0.856
vt 0.128 0.795
vt 0.128 0.735
vt 0.161 0.795
vt 0.128 0.735
vt 0.161 0.735
vt 0.161 0.795
vt 0.161 0.795
vt 0.161 0.735
vt 0.193 0.795
vt 0.161 0.735
vt 0.193 0.735
vt 0.193 0.795
vt 0.161 0.795
vt 0.193 0.795
vt 0.161 0.856
vt 0.193 0.795
vt 0.193 0.856
vt 0.161 0.856
vt 0.161 0.856
vt 0.193 0.856
vt 0.161 0.918
vt 0.193 0.856
vt 0.193 0.918
vt 0.161 0.918
vt 0 0
vt 0 0
vt 0 0
vt 0 0
vt 0 0
vt 0 0
vt 0 0
vt 0 0
vt 0 0
vt 0 0
vt 0 0
vt 0 0
vt 0 0
vt 0 0
vt 0 0
vt 0 0
vt 0 0
vt 0 0
vt 0 0
vt 0 0
vt 0 0
vt 0 0
vt 0 0
vt 0 0
vt 0 0
vt 0 0
vt 0 0
vt 0 0
vt 0 0
vt 0 0
vt 0.161 0.066
vt 0.193 0.066
vt 0.161 0.128
vt 0.193 0.066
vt 0.193 0.128
vt 0.161 0.128
vt 0.161 0.128
vt 0.193 0.128
vt 0.161 0.189
vt 0.193 0.128
vt 0.193 0.189
vt 0.161 0.189
vt 0.161 0.189
vt 0.193 0.189
vt 0.161 0.249
vt 0.193 0.189
vt 0.193 0.249
vt 0.161 0.249
vt 0 0
vt 0 0
vt 0 0
vt 0 0
vt 0 0
vt 0 0
vt 0.161 0.253
vt 0.161 0.249
vt 0.193 0.253
vt 0.161 0.249
vt 0.193 0.249
vt 0.193 0.253
vt 0 0
vt 0 0
vt 0 0
vt 0 0
vt 0 0
vt 0 0
vt 0 0
vt 0 0
vt 0 0
vt 0 0
vt 0 0
vt 0 0
vt 0 0
vt 0 0
vt 0 0
vt 0 0
vt 0 0
vt 0 0
vt 0 0
vt 0 0
vt 0 0
vt 0 0
vt 0 0
vt 0 0
vt 0.193 0.253
vt 0.193 0.249
vt 0.226 0.253
vt 0.193 0.249
vt 0.226 0.249
vt 0.226 0.253
vt 0 0
vt 0 0
vt 0 0
vt 0 0
vt 0 0
vt 0 0
vt 0.193 0.189
vt 0.226 0.189
vt 0.193 0.249
vt 0.226 0.189
vt 0.226 0.249
vt 0.193 0.249
vt 0.193 0.128
vt 0.226 0.128
vt 0.193 0.189
vt 0.226 0.128
vt 0.226 0.189
vt 0.193 0.189
vt 0.193 0.066
vt 0.226 0.066
vt 0.193 0.128
vt 0.226 0.066
vt 0.226 0.128
vt 0.193 0.128
vt 0 0
vt 0 0
vt 0 0
vt 0 0
vt 0 0
vt 0 0
vt 0 0
vt 0 0
vt 0 0
vt 0 0
vt 0 0
vt 0 0
vt 0 0
vt 0 0
vt 0 0
vt 0 0
vt 0 0
vt 0 0
vt 0 0
vt 0 0
vt 0 0
vt 0 0
vt 0 0
vt 0 0
vt 0 0
vt 0 0
vt 0 0
vt 0 0
vt 0 0
vt 0 0
vt 0.193 0.856
vt 0.226 0.856
vt 0.193 0.918
vt 0.226 0.856
vt 0.226 0.918
vt 0.193 0.918
vt 0.193 0.795
vt 0.226 0.795
vt 0.193 0.856
vt 0.226 0.795
vt 0.226 0.856
vt 0.193 0.856
vt 0.193 0.795
vt 0.193 0.735
vt 0.226 0.795
vt 0.193 0.735
vt 0.226 0.735
vt 0.226 0.795
vt 0.226 0.795
vt 0.226 0.735
vt 0.259 0.795
vt 0.226 0.735
vt 0.259 0.735
vt 0.259 0.795
vt 0.226 0.795
vt 0.259 0.795
vt 0.226 0.856
vt 0.259 0.795
vt 0.259 0.856
vt 0.226 0.856
vt 0.226 0.856
vt 0.259 0.856
vt 0.226 0.918
vt 0.259 0.856
vt 0.259 0.918
vt 0.226 0.918
vt 0 0
vt 0 0
vt 0 0
vt 0 0
vt 0 0
vt 0 0
vt 0 0
vt 0 0
vt 0 0
vt 0 0
vt 0 0
vt 0 0
vt 0 0
vt 0 0
vt 0 0
vt 0 0
vt 0 0
vt 0 0
vt 0 0
vt 0 0
vt 0 0
vt 0 0
vt 0 0
vt 0 0
vt 0 0
vt 0 0
vt 0 0
vt 0 0
vt 0 0
vt 0 0
vt 0.226 0.066
vt 0.259 0.066
vt 0.226 0.128
vt 0.259 0.066
vt 0.259 0.128
vt 0.226 0.128
vt 0.226 0.128
vt 0.259 0.128
vt 0.226 0.189
vt 0.259 0.128
vt 0.259 0.189
vt 0.226 0.189
vt 0.226 0.189
vt 0.259 0.189
vt 0.226 0.249
vt 0.259 0.189
vt 0.259 0.249
vt 0.226 0.249
vt 0 0
vt 0 0
vt 0 0
vt 0 0
vt 0 0
vt 0 0
vt 0.226 0.253
vt 0.226 0.249
vt 0.259 0.253
vt 0.226 0.249
vt 0.259 0.249
vt 0.259 0.253
vt 0 0
vt 0 0
vt 0 0
vt 0 0
vt 0 0
vt 0 0
vt 0 0
vt 0 0
vt 0 0
vt 0 0
vt 0 0
vt 0 0
vt 0 0
vt 0 0
vt 0 0
vt 0 0
vt 0 0
vt 0 0
vt 0 0
vt 0 0
vt 0 0
vt 0 0
vt 0 0
vt 0 0
vt 0.259 0.253
vt 0.259 0.249
vt 0.292 0.253
vt 0.259 0.249
vt 0.292 0.249
vt 0.292 0.253
vt 0 0
vt 0 0
vt 0 0
vt 0 0
vt 0 0
vt 0 0
vt 0.259 0.189
vt 0.292 0.189
vt 0.259 0.249
vt 0.292 0.189
vt 0.292 0.249
vt 0.259 0.249
vt 0.259 0.128
vt 0.292 0.128
vt 0.259 0.189
vt 0.292 0.128
vt 0.292 0.189
vt 0.259 0.189
vt 0.259 0.066
vt 0.292 0.066
vt 0.259 0.128
vt 0.292 0.066
vt 0.292 0.128
vt 0.259 0.128
vt 0 0
vt 0 0
vt 0 0
vt 0 0
vt 0 0
vt 0 0
vt 0 0
vt 0 0
vt 0 0
vt 0 0
vt 0 0
vt 0 0
vt 0 0
vt 0 0
vt 0 0
vt 0 0
vt 0 0
vt 0 0
vt 0 0
vt 0 0
vt 0 0
vt 0 0
vt 0 0
vt 0 0
vt 0 0
vt 0 0
vt 0 0
vt 0 0
vt 0 0
vt 0 0
vt 0.259 0.856
vt 0.292 0.856
vt 0.259 0.918
vt 0.292 0.856
vt 0.292 0.918
vt 0.259 0.918
vt 0.259 0.795
vt 0.292 0.795
vt 0.259 0.856
vt 0.292 0.795
vt 0.292 0.856
vt 0.259 0.856
vt 0.259 0.795
vt 0.259 0.735
vt 0.292 0.795
vt 0.259 0.735
vt 0.292 0.735
vt 0.292 0.795
vt 0.259 0.735
vt 0.259 0.729
vt 0.292 0.735
vt 0.259 0.729
vt 0.292 0.729
vt 0.292 0.735
vt 0.226 0.735
vt 0.226 0.729
vt 0.259 0.735
vt 0.226 0.729
vt 0.259 0.729
vt 0.259 0.735
vt 0.193 0.735
vt 0.193 0.729
vt 0.226 0.735
vt 0.193 0.729
vt 0.226 0.729
vt 0.226 0.735
vt 0.161 0.735
vt 0.161 0.729
vt 0.193 0.735
vt 0.161 0.729
vt 0.193 0.729
vt 0.193 0.735
vt 0.128 0.735
vt 0.128 0.729
vt 0.161 0.735
vt 0.128 0.729
vt 0.161 0.729
vt 0.161 0.735
vt 0.096 0.735
vt 0.096 0.729
vt 0.128 0.735
vt 0.096 0.729
vt 0.128 0.729
vt 0.128 0.735
vt 0.259 0.729
vt 0.259 0.253
vt 0.292 0.729
vt 0.259 0.253
vt 0.292 0.253
vt 0.292 0.729
vt 0.226 0.729
vt 0.226 0.253
vt 0.259 0.729
vt 0.226 0.253
vt 0.259 0.253
vt 0.259 0.729
vt 0.193 0.729
vt 0.193 0.253
vt 0.226 0.729
vt 0.193 0.253
vt 0.226 0.253
vt 0.226 0.729
vt 0.161 0.729
vt 0.161 0.253
vt 0.193 0.729
vt 0.161 0.253
vt 0.193 0.253
vt 0.193 0.729
vt 0.128 0.729
vt 0.128 0.253
vt 0.161 0.729
vt 0.128 0.253
vt 0.161 0.253
vt 0.161 0.729
vt 0.096 0.729
vt 0.096 0.253
vt 0.128 0.729
vt 0.096 0.253
vt 0.128 0.253
vt 0.128 0.729
vt 0.495 0.795
vt 0.462 0.795
vt 0.495 0.735
vt 0.462 0.795
vt 0.462 0.735
vt 0.495 0.735
vt 0.495 0.795
vt 0.495 0.856
vt 0.462 0.795
vt 0.495 0.856
vt 0.462 0.856
vt 0.462 0.795
vt 0.495 0.856
vt 0.495 0.918
vt 0.462 0.856
vt 0.495 0.918
vt 0.462 0.918
vt 0.462 0.856
vt 0 0
vt 0 0
vt 0 0
vt 0 0
vt 0 0
vt 0 0
vt 0 0
vt 0 0
vt 0 0
vt 0 0
vt 0 0
vt 0 0
vt 0 0
vt 0 0
vt 0 0
vt 0 0
vt 0 0
vt 0 0
vt 0 0
vt 0 0
vt 0 0
vt 0 0
vt 0 0
vt 0 0
vt 0 0
vt 0 0
vt 0 0
vt 0 0
vt 0 0
vt 0 0
vt 0.495 0.066
vt 0.495 0.128
vt 0.462 0.066
vt 0.495 0.128
vt 0.462 0.128
vt 0.462 0.066
vt 0.495 0.128
vt 0.495 0.189
vt 0.462 0.128
vt 0.495 0.189
vt 0.462 0.189
vt 0.462 0.128
vt 0.495 0.189
vt 0.495 0.249
vt 0.462 0.189
vt 0.495 0.249
vt 0.462 0.249
vt 0.462 0.189
vt 0 0
vt 0 0
vt 0 0
vt 0 0
vt 0 0
vt 0 0
vt 0.495 0.253
vt 0.462 0.253
vt 0.495 0.249
vt 0.462 0.253
vt 0.462 0.249
vt 0.495 0.249
vt 0 0
vt 0 0
vt 0 0
vt 0 0
vt 0 0
vt 0 0
vt 0 0
vt 0 0
vt 0 0
vt 0 0
vt 0 0
vt 0 0
vt 0 0
vt 0 0
vt 0 0
vt 0 0
vt 0 0
vt 0 0
vt 0 0
vt 0 0
vt 0 0
vt 0 0
vt 0 0
vt 0 0
vt 0.462 0.253
vt 0.427 0.253
vt 0.462 0.249
vt 0.427 0.253
vt 0.427 0.249
vt 0.462 0.249
vt 0 0
vt 0 0
vt 0 0
vt 0 0
vt 0 0
vt 0 0
vt 0.462 0.189
vt 0.462 0.249
vt 0.427 0.189
vt 0.462 0.249
vt 0.427 0.249
vt 0.427 0.189
vt 0.462 0.128
vt 0.462 0.189
vt 0.427 0.128
vt 0.462 0.189
vt 0.427 0.189
vt 0.427 0.128
vt 0.462 0.066
vt 0.462 0.128
vt 0.427 0.066
vt 0.462 0.128
vt 0.427 0.128
vt 0.427 0.066
vt 0 0
vt 0 0
vt 0 0
vt 0 0
vt 0 0
vt 0 0
vt 0 0
vt 0 0
vt 0 0
vt 0 0
vt 0 0
vt 0 0
vt 0 0
vt 0 0
vt 0 0
vt 0 0
vt 0 0
vt 0 0
vt 0 0
vt 0 0
vt 0 0
vt 0 0
vt 0 0
vt 0 0
vt 0 0
vt 0 0
vt 0 0
vt 0 0
vt 0 0
vt 0 0
vt 0.462 0.856
vt 0.462 0.918
vt 0.427 0.856
vt 0.462 0.918
vt 0.427 0.918
vt 0.427 0.856
vt 0.462 0.795
vt 0.462 0.856
vt 0.427 0.795
vt 0.462 0.856
vt 0.427 0.856
vt 0.427 0.795
vt 0.462 0.795
vt 0.427 0.795
vt 0.462 0.735
vt 0.427 0.795
vt 0.427 0.735
vt 0.462 0.735
vt 0.427 0.795
vt 0.393 0.795
vt 0.427 0.735
vt 0.393 0.795
vt 0.393 0.735
vt 0.427 0.735
vt 0.427 0.795
vt 0.427 0.856
vt 0.393 0.795
vt 0.427 0.856
vt 0.393 0.856
vt 0.393 0.795
vt 0.427 0.856
vt 0.427 0.918
vt 0.393 0.856
vt 0.427 0.918
vt 0.393 0.918
vt 0.393 0.856
vt 0 0
vt 0 0
vt 0 0
vt 0 0
vt 0 0
vt 0 0
vt 0 0
vt 0 0
vt 0 0
vt 0 0
vt 0 0
vt 0 0
vt 0 0
vt 0 0
vt 0 0
vt 0 0
vt 0 0
vt 0 0
vt 0 0
vt 0 0
vt 0 0
vt 0 0
vt 0 0
vt 0 0
vt 0 0
vt 0 0
vt 0 0
vt 0 0
vt 0 0
vt 0 0
vt 0.427 0.066
vt 0.427 0.128
vt 0.393 0.066
vt 0.427 0.128
vt 0.393 0.128
vt 0.393 0.066
vt 0.427 0.128
vt 0.427 0.189
vt 0.393 0.128
vt 0.427 0.189
vt 0.393 0.189
vt 0.393 0.128
vt 0.427 0.189
vt 0.427 0.249
vt 0.393 0.189
vt 0.427 0.249
vt 0.393 0.249
vt 0.393 0.189
vt 0 0
vt 0 0
vt 0 0
vt 0 0
vt 0 0
vt 0 0
vt 0.427 0.253
vt 0.393 0.253
vt 0.427 0.249
vt 0.393 0.253
vt 0.393 0.249
vt 0.427 0.249
vt 0 0
vt 0 0
vt 0 0
vt 0 0
vt 0 0
vt 0 0
vt 0 0
vt 0 0
vt 0 0
vt 0 0
vt 0 0
vt 0 0
vt 0 0
vt 0 0
vt 0 0
vt 0 0
vt 0 0
vt 0 0
vt 0 0
vt 0 0
vt 0 0
vt 0 0
vt 0 0
vt 0 0
vt 0.393 0.253
vt 0.36 0.253
vt 0.393 0.249
vt 0.36 0.253
vt 0.36 0.249
vt 0.393 0.249
vt 0 0
vt 0 0
vt 0 0
vt 0 0
vt 0 0
vt 0 0
vt 0.393 0.189
vt 0.393 0.249
vt 0.36 0.189
vt 0.393 0.249
vt 0.36 0.249
vt 0.36 0.189
vt 0.393 0.128
vt 0.393 0.189
vt 0.36 0.128
vt 0.393 0.189
vt 0.36 0.189
vt 0.36 0.128
vt 0.393 0.066
vt 0.393 0.128
vt 0.36 0.066
vt 0.393 0.128
vt 0.36 0.128
vt 0.36 0.066
vt 0 0
vt 0 0
vt 0 0
vt 0 0
vt 0 0
vt 0 0
vt 0 0
vt 0 0
vt 0 0
vt 0 0
vt 0 0
vt 0 0
vt 0 0
vt 0 0
vt 0 0
vt 0 0
vt 0 0
vt 0 0
vt 0 0
vt 0 0
vt 0 0
vt 0 0
vt 0 0
vt 0 0
vt 0 0
vt 0 0
vt 0 0
vt 0 0
vt 0 0
vt 0 0
vt 0.393 0.856
vt 0.393 0.918
vt 0.36 0.856
vt 0.393 0.918
vt 0.36 0.918
vt 0.36 0.856
vt 0.393 0.795
vt 0.393 0.856
vt 0.36 0.795
vt 0.393 0.856
vt 0.36 0.856
vt 0.36 0.795
vt 0.393 0.795
vt 0.36 0.795
vt 0.393 0.735
vt 0.36 0.795
vt 0.36 0.735
vt 0.393 0.735
vt 0.36 0.795
vt 0.325 0.795
vt 0.36 0.735
vt 0.325 0.795
vt 0.325 0.735
vt 0.36 0.735
vt 0.36 0.795
vt 0.36 0.856
vt 0.325 0.795
vt 0.36 0.856
vt 0.325 0.856
vt 0.325 0.795
vt 0.36 0.856
vt 0.36 0.918
vt 0.325 0.856
vt 0.36 0.918
vt 0.325 0.918
vt 0.325 0.856
vt 0 0
vt 0 0
vt 0 0
vt 0 0
vt 0 0
vt 0 0
vt 0 0
vt 0 0
vt 0 0
vt 0 0
vt 0 0
vt 0 0
vt 0 0
vt 0 0
vt 0 0
vt 0 0
vt 0 0
vt 0 0
vt 0 0
vt 0 0
vt 0 0
vt 0 0
vt 0 0
vt 0 0
vt 0 0
vt 0 0
vt 0 0
vt 0 0
vt 0 0
vt 0 0
vt 0.36 0.066
vt 0.36 0.128
vt 0.325 0.066
vt 0.36 0.128
vt 0.325 0.128
vt 0.325 0.066
vt 0.36 0.128
vt 0.36 0.189
vt 0.325 0.128
vt 0.36 0.189
vt 0.325 0.189
vt 0.325 0.128
vt 0.36 0.189
vt 0.36 0.249
vt 0.325 0.189
vt 0.36 0.249
vt 0.325 0.249
vt 0.325 0.189
vt 0 0
vt 0 0
vt 0 0
vt 0 0
vt 0 0
vt 0 0
vt 0.36 0.253
vt 0.325 0.253
vt 0.36 0.249
vt 0.325 0.253
vt 0.325 0.249
vt 0.36 0.249
vt 0 0
vt 0 0
vt 0 0
vt 0 0
vt 0 0
vt 0 0
vt 0 0
vt 0 0
vt 0 0
vt 0 0
vt 0 0
vt 0 0
vt 0 0
vt 0 0
vt 0 0
vt 0 0
vt 0 0
vt 0 0
vt 0 0
vt 0 0
vt 0 0
vt 0 0
vt 0 0
vt 0 0
vt 0.325 0.253
vt 0.292 0.253
vt 0.325 0.249
vt 0.292 0.253
vt 0.292 0.249
vt 0.325 0.249
vt 0 0
vt 0 0
vt 0 0
vt 0 0
vt 0 0
vt 0 0
vt 0.325 0.189
vt 0.325 0.249
vt 0.292 0.189
vt 0.325 0.249
vt 0.292 0.249
vt 0.292 0.189
vt 0.325 0.128
vt 0.325 0.189
vt 0.292 0.128
vt 0.325 0.189
vt 0.292 0.189
vt 0.292 0.128
vt 0.325 0.066
vt 0.325 0.128
vt 0.292 0.066
vt 0.325 0.128
vt 0.292 0.128
vt 0.292 0.066
vt 0 0
vt 0 0
vt 0 0
vt 0 0
vt 0 0
vt 0 0
vt 0 0
vt 0 0
vt 0 0
vt 0 0
vt 0 0
vt 0 0
vt 0 0
vt 0 0
vt 0 0
vt 0 0
vt 0 0
vt 0 0
vt 0 0
vt 0 0
vt 0 0
vt 0 0
vt 0 0
vt 0 0
vt 0 0
vt 0 0
vt 0 0
vt 0 0
vt 0 0
vt 0 0
vt 0.325 0.856
vt 0.325 0.918
vt 0.292 0.856
vt 0.325 0.918
vt 0.292 0.918
vt 0.292 0.856
vt 0.325 0.795
vt 0.325 0.856
vt 0.292 0.795
vt 0.325 0.856
vt 0.292 0.856
vt 0.292 0.795
vt 0.325 0.795
vt 0.292 0.795
vt 0.325 0.735
vt 0.292 0.795
vt 0.292 0.735
vt 0.325 0.735
vt 0 0
vt 0 0
vt 0 0
vt 0 0
vt 0 0
vt 0 0
vt 0.325 0.735
vt 0.292 0.735
vt 0.325 0.729
vt 0.292 0.735
vt 0.292 0.729
vt 0.325 0.729
vt 0.36 0.735
vt 0.325 0.735
vt 0.36 0.729
vt 0.325 0.735
vt 0.325 0.729
vt 0.36 0.729
vt 0.393 0.735
vt 0.36 0.735
vt 0.393 0.729
vt 0.36 0.735
vt 0.36 0.729
vt 0.393 0.729
vt 0.427 0.735
vt 0.393 0.735
vt 0.427 0.729
vt 0.393 0.735
vt 0.393 0.729
vt 0.427 0.729
vt 0.462 0.735
vt 0.427 0.735
vt 0.462 0.729
vt 0.427 0.735
vt 0.427 0.729
vt 0.462 0.729
vt 0.495 0.735
vt 0.462 0.735
vt 0.495 0.729
vt 0.462 0.735
vt 0.462 0.729
vt 0.495 0.729
vt 0.325 0.729
vt 0.292 0.729
vt 0.325 0.253
vt 0.292 0.729
vt 0.292 0.253
vt 0.325 0.253
vt 0.36 0.729
vt 0.325 0.729
vt 0.36 0.253
vt 0.325 0.729
vt 0.325 0.253
vt 0.36 0.253
vt 0.393 0.729
vt 0.36 0.729
vt 0.393 0.253
vt 0.36 0.729
vt 0.36 0.253
vt 0.393 0.253
vt 0.427 0.729
vt 0.393 0.729
vt 0.427 0.253
vt 0.393 0.729
vt 0.393 0.253
vt 0.427 0.253
vt 0.462 0.729
vt 0.427 0.729
vt 0.462 0.253
vt 0.427 0.729
vt 0.427 0.253
vt 0.462 0.253
vt 0.495 0.729
vt 0.462 0.729
vt 0.495 0.253
vt 0.462 0.729
vt 0.462 0.253
vt 0.495 0.253
vt 0 0
vt 0 0
vt 0 0
vt 0 0
vt 0 0
vt 0 0
vt 0 0
vt 0 0
vt 0 0
vt 0 0
vt 0 0
vt 0 0
vt 0 0
vt 0 0
vt 0 0
vt 0 0
vt 0 0
vt 0 0
vt 0 0
vt 0 0
vt 0 0
vt 0 0
vt 0 0
vt 0 0
vt 0 0
vt 0 0
vt 0 0
vt 0 0
vt 0 0
vt 0 0
vt 0 0
vt 0 0
vt 0 0
vt 0 0
vt 0 0
vt 0 0
vt 0 0
vt 0 0
vt 0 0
vt 0 0
vt 0 0
vt 0 0
vt 0 0
vt 0 0
vt 0 0
vt 0 0
vt 0 0
vt 0 0
vt 0 0
vt 0 0
vt 0 0
vt 0 0
vt 0 0
vt 0 0
vt 0 0
vt 0 0
vt 0 0
vt 0 0
vt 0 0
vt 0 0
vt 0 0
vt 0 0
vt 0 0
vt 0 0
vt 0 0
vt 0 0
vt 0 0
vt 0 0
vt 0 0
vt 0 0
vt 0 0
vt 0 0
vt 0 0
vt 0 0
vt 0 0
vt 0 0
vt 0 0
vt 0 0
vt 0 0
vt 0 0
vt 0 0
vt 0 0
vt 0 0
vt 0 0
vt 0 0
vt 0 0
vt 0 0
vt 0 0
vt 0 0
vt 0 0
vt 0 0
vt 0 0
vt 0 0
vt 0 0
vt 0 0
vt 0 0
vt 0 0
vt 0 0
vt 0 0
vt 0 0
vt 0 0
vt 0 0
vt 0 0
vt 0 0
vt 0 0
vt 0 0
vt 0 0
vt 0 0
vt 0 0
vt 0 0
vt 0 0
vt 0 0
vt 0 0
vt 0 0
vt 0 0
vt 0 0
vt 0 0
vt 0 0
vt 0 0
vt 0 0
vt 0 0
vt 0 0
vt 0 0
vt 0 0
vt 0 0
vt 0 0
vt 0 0
vt 0 0
vt 0 0
vt 0 0
vt 0 0
vt 0 0
vt 0 0
vt 0 0
vt 0 0
vt 0 0
vt 0 0
vt 0 0
vt 0 0
vt 0 0
vt 0 0
vt 0 0
vt 0 0
vt 0 0
vt 0 0
vt 0 0
vt 0 0
vt 0 0
vt 0 0
vt 0 0
vt 0 0
vt 0 0
vt 0 0
vt 0 0
vt 0 0
vt 0 0
vt 0 0
vt 0 0
vt 0 0
vt 0 0
vt 0 0
vt 0 0
vt 0 0
vt 0 0
vt 0 0
vt 0 0
vt 0 0
vt 0 0
vt 0 0
vt 0 0
vt 0 0
vt 0 0
vt 0 0
vt 0 0
vt 0 0
vt 0 0
vt 0 0
vt 0 0
vt 0 0
vt 0 0
vt 0 0
vt 0 0
vt 0 0
vt 0 0
vt 0 0
vt 0 0
vt 0 0
vt 0 0
vt 0 0
vt 0 0
vt 0 0
vt 0 0
vt 0 0
vt 0 0
vt 0 0
vt 0 0
vt 0 0
vt 0 0
vt 0 0
vt 0 0
vt 0 0
vt 0 0
vt 0 0
vt 0 0
vt 0 0
vt 0 0
vt 0 0
vt 0 0
vt 0 0
vt 0 0
vt 0 0
vt 0 0
vt 0 0
vt 0 0
vt 0 0
vt 0 0
vt 0 0
vt 0 0
vt 0 0
vt 0 0
vt 0 0
vt 0 0
vt 0 0
vt 0 0
vt 0 0
vt 0 0
vt 0 0
vt 0 0
vt 0 0
vt 0 0
vt 0 0
vt 0 0
vt 0 0
vt 0 0
vt 0 0
vt 0 0
vt 0 0
vt 0 0
vt 0 0
vt 0 0
vt 0 0
vt 0 0
vt 0 0
vt 0 0
vt 0 0
vt 0 0
vt 0 0
vt 0 0
vt 0 0
vt 0 0
vt 0 0
vt 0 0
vt 0 0
vt 0 0
vt 0 0
vt 0 0
vt 0 0
vt 0 0
vt 0 0
vt 0 0
vt 0 0
vt 0 0
vt 0 0
vt 0 0
vt 0 0
vt 0 0
vt 0 0
vt 0 0
vt 0 0
vt 0 0
vt 0 0
vt 0 0
vt 0 0
vt 0 0
vt 0 0
vt 0 0
vt 0 0
vt 0 0
vt 0 0
vt 0 0
vt 0 0
vt 0 0
vt 0 0
vt 0 0
vt 0 0
vt 0 0
vt 0 0
vt 0 0
vt 0 0
vt 0 0
vt 0 0
vt 0 0
vt 0 0
vt 0 0
vt 0 0
vt 0 0
vt 0 0
vt 0 0
vt 0 0
vt 0 0
vt 0 0
vt 0 0
vt 0 0
vt 0 0
vt 0 0
vt 0 0
vt 0 0
vt 0 0
vt 0 0
vt 0 0
vt 0 0
vt 0 0
vt 0 0
vt 0 0
vt 0 0
vt 0 0
vt 0 0
vt 0 0
vt 0 0
vt 0 0
vt 0 0
vt 0 0
vt 0 0
vt 0 0
vt 0 0
vt 0 0
vt 0 0
vt 0 0
vt 0 0
vt 0 0
vt 0 0
vt 0 0
vt 0 0
vt 0 0
vt 0 0
vt 0 0
vt 0 0
vt 0 0
vt 0 0
vt 0 0
vt 0 0
vt 0 0
vt 0 0
vt 0 0
vt 0 0
vt 0 0
vt 0 0
vt 0 0
vt 0 0
vt 0 0
vt 0 0
vt 0 0
vt 0 0
vt 0 0
vt 0 0
vt 0 0
vt 0 0
vt 0 0
vt 0 0
vt 0 0
vt 0 0
vt 0 0
vt 0 0
vt 0 0
vt 0 0
vt 0 0
vt 0 0
vt 0 0
vt 0 0
vt 0 0
vt 0 0
vt 0 0
vt 0 0
vt 0 0
vt 0 0
vt 0 0
vt 0 0
vt 0 0
vt 0 0
vt 0 0
vt 0 0
vt 0 0
vt 0 0
vt 0 0
vt 0 0
vt 0 0
vt 0 0
vt 0 0
vt 0 0
vt 0 0
vt 0 0
vt 0 0
vt 0 0
vt 0 0
vt 0 0
vt 0 0
vt 0 0
vt 0 0
vt 0 0
vt 0 0
vt 0 0
vt 0 0
vt 0 0
vt 0 0
vt 0 0
vt 0 0
vt 0 0
vt 0 0
vt 0 0
vt 0 0
vt 0 0
vt 0 0
vt 0 0
vt 0 0
vt 0 0
vt 0 0
vt 0 0
vt 0 0
vt 0 0
vt 0 0
vt 0 0
vt 0 0
vt 0 0
vt 0 0
vt 0 0
vt 0 0
vt 0 0
vt 0 0
vt 0 0
vt 0 0
vt 0 0
vt 0 0
vt 0 0
vt 0 0
vt 0 0
vt 0 0
vt 0 0
vt 0 0
vt 0 0
vt 0 0
vt 0 0
vt 0 0
vt 0 0
vt 0 0
vt 0 0
vt 0 0
vt 0 0
vt 0 0
vt 0 0
vt 0 0
vt 0 0
vt 0 0
vt 0 0
vt 0 0
vt 0 0
vt 0 0
vt 0 0
vt 0 0
vt 0 0
vt 0 0
vt 0 0
vt 0 0
vt 0 0
vt 0 0
vt 0 0
vt 0 0
vt 0 0
vt 0 0
vt 0 0
vt 0 0
vt 0 0
vt 0 0
vt 0 0
vt 0 0
vt 0 0
vt 0 0
vt 0 0
vt 0 0
vt 0 0
vt 0 0
vt 0 0
vt 0 0
vt 0 0
vt 0 0
vt 0 0
vt 0 0
vt 0 0
vt 0 0
vt 0 0
vt 0 0
vt 0 0
vt 0 0
vt 0 0
vt 0 0
vt 0 0
vt 0 0
vt 0 0
vt 0 0
vt 0 0
vt 0 0
vt 0 0
vt 0 0
vt 0 0
vt 0 0
vt 0 0
vt 0 0
vt 0 0
vt 0 0
vt 0 0
vt 0 0
vt 0 0
vt 0 0
vt 0 0
vt 0 0
vt 0 0
vt 0 0
vt 0 0
vt 0 0
vt 0 0
vt 0 0
vt 0 0
vt 0 0
vt 0 0
vt 0 0
vt 0 0
vt 0 0
vt 0 0
vt 0 0
vt 0 0
vt 0 0
vt 0 0
vt 0 0
vt 0 0
vt 0 0
vt 0 0
vt 0 0
vt 0 0
vt 0 0
vt 0 0
vt 0 0
vt 0 0
vt 0 0
vt 0 0
vt 0 0
vt 0 0
vt 0 0
vt 0 0
vt 0 0
vt 0 0
vt 0 0
vt 0 0
vt 0 0
vt 0 0
vt 0 0
vt 0 0
vt 0 0
vt 0 0
vt 0 0
vt 0 0
vt 0 0
vt 0 0
vt 0 0
vt 0 0
vt 0 0
vt 0 0
vt 0 0
vt 0 0
vt 0 0
vt 0 0
vt 0 0
vt 0 0
vt 0 0
vt 0 0
vt 0 0
vt 0 0
vt 0 0
vt 0 0
vt 0 0
vt 0 0
vt 0 0
vt 0 0
vt 0 0
vt 0 0
vt 0 0
vt 0 0
vt 0 0
vt 0 0
vt 0 0
vt 0 0
vt 0 0
vt 0 0
vt 0 0
vt 0 0
vt 0 0
vt 0 0
vt 0 0
vt 0 0
vt 0 0
vt 0 0
vt 0 0
vt 0 0
vt 0 0
vt 0 0
vt 0 0
vt 0 0
vt 0 0
vt 0 0
vt 0 0
vt 0 0
vt 0 0
vt 0 0
vt 0 0
vt 0 0
vt 0 0
vt 0 0
vt 0 0
vt 0 0
vt 0 0
vt 0 0
vt 0 0
vt 0 0
vt 0 0
vt 0 0
vt 0 0
vt 0 0
vt 0 0
vt 0 0
vt 0 0
vt 0 0
vt 0 0
vt 0 0
vt 0 0
vt 0 0
vt 0 0
vt 0 0
vt 0 0
vt 0 0
vt 0 0
vt 0 0
vt 0 0
vt 0 0
vt 0 0
vt 0 0
vt 0 0
vt 0 0
vt 0 0
vt 0 0
vt 0 0
vt 0 0
vt 0 0
vt 0 0
vt 0 0
vt 0 0
vt 0 0
vt 0 0
vt 0 0
vt 0 0
vt 0 0
vt 0 0
vt 0 0
vt 0 0
vt 0 0
vt 0 0
vt 0 0
vt 0 0
vt 0 0
vt 0 0
vt 0 0
vt 0 0
vt 0 0
vt 0 0
vt 0 0
vt 0 0
vt 0 0
vt 0 0
vt 0 0
vt 0 0
vt 0 0
vt 0 0
vt 0 0
vt 0 0
vt 0 0
vt 0 0
vt 0 0
vt 0 0
vt 0 0
vt 0 0
vt 0 0
vt 0 0
vt 0 0
vt 0 0
vt 0 0
vt 0 0
vt 0 0
vt 0 0
vt 0 0
vt 0 0
vt 0 0
vt 0 0
vt 0 0
vt 0 0
vt 0 0
vt 0 0
vt 0 0
vt 0 0
vt 0 0
vt 0 0
vt 0 0
vt 0 0
vt 0 0
vt 0 0
vt 0 0
vt 0 0
vt 0 0
vt 0 0
vt 0 0
vt 0 0
vt 0 0
vt 0 0
vt 0 0
vt 0 0
vt 0 0
vt 0 0
vt 0 0
vt 0 0
vt 0 0
vt 0 0
vt 0 0
vt 0 0
vt 0 0
vt 0 0
vt 0 0
vt 0 0
vt 0 0
vt 0 0
vt 0 0
vt 0 0
vt 0 0
vt 0 0
vt 0 0
vt 0 0
vt 0 0
vt 0 0
vt 0 0
vt 0 0
vt 0 0
vt 0 0
vt 0 0
vt 0 0
vt 0 0
vt 0 0
vt 0 0
vt 0 0
vt 0 0
vt 0 0
vt 0 0
vt 0 0
vt 0 0
vt 0 0
vt 0 0
vt 0 0
vt 0 0
vt 0 0
vt 0 0
vt 0 0
vt 0 0
vt 0 0
vt 0 0
vt 0 0
vt 0 0
vt 0 0
vt 0 0
vt 0 0
vt 0 0
vt 0 0
vt 0 0
vt 0 0
vt 0 0
vt 0 0
vt 0 0
vt 0 0
vt 0 0
vt 0 0
vt 0 0
vt 0 0
vt 0 0
vt 0 0
vt 0 0
vt 0 0
vt 0 0
vt 0 0
vt 0 0
vt 0 0
vt 0 0
vt 0 0
vt 0 0
vt 0 0
vt 0 0
vt 0 0
vt 0 0
vt 0 0
vt 0 0
vt 0 0
vt 0 0
vt 0 0
vt 0 0
vt 0 0
vt 0 0
vt 0 0
vt 0 0
vt 0 0
vt 0 0
vt 0 0
vt 0 0
vt 0 0
vt 0 0
vt 0 0
vt 0 0
vt 0 0
vt 0 0
vt 0 0
vt 0 0
vt 0 0
vt 0 0
vt 0 0
vt 0 0
vt 0 0
vt 0 0
vt 0 0
vt 0 0
vt 0 0
vt 0 0
vt 0 0
vt 0 0
vt 0 0
vt 0 0
vt 0 0
vt 0 0
vt 0 0
vt 0 0
vt 0 0
vt 0 0
vt 0 0
vt 0 0
vt 0 0
vt 0 0
vt 0 0
vt 0 0
vt 0 0
vt 0 0
vt 0 0
vt 0 0
vt 0 0
vt 0 0
vt 0 0
vt 0 0
vt 0 0
vt 0 0
vt 0 0
vt 0 0
vt 0 0
vt 0 0
vt 0 0
vt 0 0
vt 0 0
vt 0 0
vt 0 0
vt 0 0
vt 0 0
vt 0 0
vt 0 0
vt 0 0
vt 0 0
vt 0 0
vt 0 0
vt 0 0
vt 0 0
vt 0 0
vt 0 0
vt 0 0
vt 0 0
vt 0 0
vt 0 0
vt 0 0
vt 0 0
vt 0 0
vt 0 0
vt 0 0
vt 0 0
vt 0 0
vt 0 0
vt 0 0
vt 0 0
vt 0 0
vt 0 0
vt 0 0
vt 0 0
vt 0 0
vt 0 0
vt 0 0
vt 0 0
vt 0 0
vt 0 0
vt 0 0
vt 0 0
vt 0 0
vt 0 0
vt 0 0
vt 0 0
vt 0 0
vt 0 0
vt 0 0
vt 0 0
vt 0 0
vt 0 0
vt 0 0
vt 0 0
vt 0 0
vt 0 0
vt 0 0
vt 0 0
vt 0 0
vt 0 0
vt 0 0
vt 0 0
vt 0 0
vt 0 0
vt 0 0
vt 0 0
vt 0 0
vt 0 0
vt 0 0
vt 0 0
vt 0 0
vt 0 0
vt 0 0
vt 0 0
vt 0 0
vt 0 0
vt 0 0
vt 0 0
vt 0 0
vt 0 0
vt 0 0
vt 0 0
vt 0 0
vt 0 0
vt 0 0
vt 0 0
vt 0 0
vt 0 0
vt 0 0
vt 0 0
vt 0 0
vt 0 0
vt 0 0
vt 0 0
vt 0 0
vt 0 0
vt 0 0
vt 0 0
vt 0 0
vt 0 0
vt 0 0
vt 0 0
vt 0 0
vt 0 0
vt 0 0
vt 0 0
vt 0 0
vt 0 0
vt 0 0
vt 0 0
vt 0 0
vt 0 0
vt 0 0
vt 0 0
vt 0 0
vt 0 0
vt 0 0
vt 0 0
vt 0 0
vt 0 0
vt 0 0
vt 0 0
vt 0 0
vt 0 0
vt 0 0
vt 0 0
vt 0 0
vt 0 0
vt 0 0
vt 0 0
vt 0 0
vt 0 0
vt 0 0
vt 0 0
vt 0 0
vt 0 0
vt 0 0
vt 0 0
vt 0 0
vt 0 0
vt 0 0
vt 0 0
vt 0 0
vt 0 0
vt 0 0
vt 0 0
vt 0 0
vt 0 0
vt 0 0
vt 0 0
vt 0 0
vt 0 0
vt 0 0
vt 0 0
vt 0 0
vt 0 0
vt 0 0
vt 0 0
vt 0 0
vt 0 0
vt 0 0
vt 0 0
vt 0 0
vt 0 0
vt 0 0
vt 0 0
vt 0 0
vt 0 0
vt 0 0
vt 0 0
vt 0 0
vt 0 0
vt 0 0
vt 0 0
vt 0 0
vt 0 0
vt 0 0
vt 0 0
vt 0 0
vt 0 0
vt 0 0
vt 0 0
vt 0 0
vt 0 0
vt 0 0
vt 0 0
vt 0 0
vt 0 0
vt 0 0
vt 0 0
vt 0 0
vt 0 0
vt 0 0
vt 0 0
vt 0 0
vt 0 0
vt 0 0
vt 0 0
vt 0 0
vt 0 0
vt 0 0
vt 0 0
vt 0 0
vt 0 0
vt 0 0
vt 0 0
vt 0 0
vt 0 0
vt 0 0
vt 0 0
vt 0 0
vt 0 0
vt 0 0
vt 0 0
vt 0 0
vt 0 0
vt 0 0
vt 0 0
vt 0 0
vt 0 0
vt 0 0
vt 0 0
vt 0 0
vt 0 0
vt 0 0
vt 0 0
vt 0 0
vt 0 0
vt 0 0
vt 0 0
vt 0 0
vt 0 0
vt 0 0
vt 0 0
vt 0 0
vt 0 0
vt 0 0
vt 0 0
vt 0 0
vt 0 0
vt 0 0
vt 0 0
vt 0 0
vt 0 0
vt 0 0
vt 0 0
vt 0 0
vt 0 0
vt 0 0
vt 0 0
vt 0 0
vt 0 0
vt 0 0
vt 0 0
vt 0 0
vt 0 0
vt 0 0
vt 0 0
vt 0 0
vt 0 0
vt 0 0
vt 0 0
vt 0 0
vt 0 0
vt 0 0
vt 0 0
vt 0 0
vt 0 0
vt 0 0
vt 0 0
vt 0 0
vt 0 0
vt 0 0
vt 0 0
vt 0 0
vt 0 0
vt 0 0
vt 0 0
vt 0 0
vt 0 0
vt 0 0
vt 0 0
vt 0 0
vt 0 0
vt 0 0
vt 0 0
vt 0 0
vt 0 0
vt 0 0
vt 0 0
vt 0 0
vt 0 0
vt 0 0
vt 0 0
vt 0 0
vt 0 0
vt 0 0
vt 0 0
vt 0 0
vt 0 0
vt 0 0
vt 0 0
vt 0 0
vt 0 0
vt 0 0
vt 0 0
vt 0 0
vt 0 0
vt 0 0
vt 0 0
vt 0 0
vt 0 0
vt 0 0
vt 0 0
vt 0 0
vt 0 0
vt 0 0
vt 0 0
vt 0 0
vt 0 0
vt 0 0
vt 0 0
vt 0 0
vt 0 0
vt 0 0
vt 0 0
vt 0 0
vt 0 0
vt 0 0
vt 0 0
vt 0 0
vt 0 0
vt 0 0
vt 0 0
vt 0 0
vt 0 0
vt 0 0
vt 0 0
vt 0 0
vt 0 0
vt 0 0
vt 0 0
vt 0 0
vt 0 0
vt 0 0
vt 0 0
vt 0 0
vt 0 0
vt 0 0
vt 0 0
vt 0 0
vt 0 0
vt 0 0
vt 0 0
vt 0 0
vt 0 0
vt 0 0
vt 0 0
vt 0 0
vt 0 0
vt 0 0
vt 0 0
vt 0 0
vt 0 0
vt 0 0
vt 0 0
vt 0 0
vt 0 0
vt 0 0
vt 0 0
vt 0 0
vt 0 0
vt 0 0
vt 0 0
vt 0 0
vt 0 0
vt 0 0
vt 0 0
vt 0 0
vt 0 0
vt 0 0
vt 0 0
vt 0 0
vt 0 0
vt 0 0
vt 0 0
vt 0 0
vt 0 0
vt 0 0
vt 0 0
vt 0 0
vt 0 0
vt 0 0
vt 0 0
vt 0 0
vt 0 0
vt 0 0
vt 0 0
vt 0 0
vt 0 0
vt 0 0
vt 0 0
vt 0 0
vt 0 0
vt 0 0
vt 0 0
vt 0 0
vt 0 0
vt 0 0
vt 0 0
vt 0 0
vt 0 0
vt 0 0
vt 0 0
vt 0 0
vt 0 0
vt 0 0
vt 0 0
vt 0 0
vt 0 0
vt 0 0
vt 0 0
vt 0 0
vt 0 0
vt 0 0
vt 0 0
vt 0 0
vt 0 0
vt 0 0
vt 0 0
vt 0 0
vt 0 0
vt 0 0
vt 0 0
vt 0 0
vt 0 0
vt 0 0
vt 0 0
vt 0 0
vt 0 0
vt 0 0
vt 0 0
vt 0 0
vt 0 0
vt 0 0
vt 0 0
vt 0 0
vt 0 0
vt 0 0
vt 0 0
vt 0 0
vt 0 0
vt 0 0
vt 0 0
vt 0 0
vt 0 0
vt 0 0
vt 0 0
vt 0 0
vt 0 0
vt 0 0
vt 0 0
vt 0 0
vt 0 0
vt 0 0
vt 0 0
vt 0 0
vt 0 0
vt 0 0
vt 0 0
vt 0 0
vt 0 0
vt 0 0
vt 0 0
vt 0 0
vt 0 0
vt 0 0
vt 0 0
vt 0 0
vt 0 0
vt 0 0
vt 0 0
vt 0 0
vt 0 0
vt 0 0
vt 0 0
vt 0 0
vt 0 0
vt 0 0
vt 0 0
vt 0 0
vt 0 0
vt 0 0
vt 0 0
vt 0 0
vt 0 0
vt 0 0
vt 0 0
vt 0 0
vt 0 0
vt 0 0
vt 0 0
vt 0 0
vt 0 0
vt 0 0
vt 0 0
vt 0 0
vt 0 0
vt 0 0
vt 0 0
vt 0 0
vt 0 0
vt 0 0
vt 0 0
vt 0 0
vt 0 0
vt 0 0
vt 0 0
vt 0 0
vt 0 0
vt 0 0
vt 0 0
vt 0 0
vt 0 0
vt 0 0
vt 0 0
vt 0 0
vt 0 0
vt 0 0
vt 0 0
vt 0 0
vt 0 0
vt 0 0
vt 0 0
vt 0 0
vt 0 0
vt 0 0
vt 0 0
vt 0 0
vt 0 0
vt 0 0
vt 0 0
vt 0 0
vt 0 0
vt 0 0
vt 0 0
vt 0 0
vt 0 0
vt 0 0
vt 0 0
vt 0 0
vt 0 0
vt 0 0
vt 0 0
vt 0 0
vt 0 0
vt 0 0
vt 0 0
vt 0 0
vt 0 0
vt 0 0
vt 0 0
vt 0 0
vt 0 0
vt 0 0
vt 0 0
vt 0 0
vt 0 0
vt 0 0
vt 0 0
vt 0 0
vt 0 0
vt 0 0
vt 0 0
vt 0 0
vt 0 0
vt 0 0
vt 0 0
vt 0 0
vt 0 0
vt 0 0
vt 0 0
vt 0 0
vt 0 0
vt 0 0
vt 0 0
vt 0 0
vt 0 0
vt 0 0
vt 0 0
vt 0 0
vt 0 0
vt 0 0
vt 0 0
vt 0 0
vt 0 0
vt 0 0
vt 0 0
vt 0 0
vt 0 0
vt 0 0
vt 0 0
vt 0 0
vt 0 0
vt 0 0
vt 0 0
vt 0 0
vt 0 0
vt 0 0
vt 0 0
vt 0 0
vt 0 0
vt 0 0
vt 0 0
vt 0 0
vt 0 0
vt 0 0
vt 0 0
vt 0 0
vt 0 0
vt 0 0
vt 0 0
vt 0 0
vt 0 0
vt 0 0
vt 0 0
vt 0 0
vt 0 0
vt 0 0
vt 0 0
vt 0 0
vt 0 0
vt 0 0
vt 0 0
vt 0 0
vt 0 0
vt 0 0
vt 0 0
vt 0 0
vt 0 0
vt 0 0
vt 0 0
vt 0 0
vt 0 0
vt 0 0
vt 0 0
vt 0 0
vt 0 0
vt 0 0
vt 0 0
vt 0 0
vt 0 0
vt 0 0
vt 0 0
vt 0 0
vt 0 0
vt 0 0
vt 0 0
vt 0 0
vt 0 0
vt 0 0
vt 0 0
vt 0 0
vt 0 0
vt 0 0
vt 0 0
vt 0 0
vt 0 0
vt 0 0
vt 0 0
vt 0 0
vt 0 0
vt 0 0
vt 0 0
vt 0 0
vt 0 0
vt 0 0
vt 0 0
vt 0 0
vt 0 0
vt 0 0
vt 0 0
vt 0 0
vt 0 0
vt 0 0
vt 0 0
vt 0 0
vt 0 0
vt 0 0
vt 0 0
vt 0 0
vt 0 0
vt 0 0
vt 0 0
vt 0 0
vt 0 0
vt 0 0
vt 0 0
vt 0 0
vt 0 0
vt 0 0
vt 0 0
vt 0 0
vt 0 0
vt 0 0
vt 0 0
vt 0 0
vt 0 0
vt 0 0
vt 0 0
vt 0 0
vt 0 0
vt 0 0
vt 0 0
vt 0 0
vt 0 0
vt 0 0
vt 0 0
vt 0 0
vt 0 0
vt 0 0
vt 0 0
vt 0 0
vt 0 0
vt 0 0
vt 0 0
vt 0 0
vt 0 0
vt 0 0
vt 0 0
vt 0 0
vt 0 0
vt 0 0
vt 0 0
vt 0 0
vt 0 0
vt 0 0
vt 0 0
vt 0 0
vt 0 0
vt 0 0
vt 0 0
vt 0 0
vt 0 0
vt 0 0
vt 0 0
vt 0 0
vt 0 0
vt 0 0
vt 0 0
vt 0 0
vt 0 0
vt 0 0
vt 0 0
vt 0 0
vt 0 0
vt 0 0
vt 0 0
vt 0 0
vt 0 0
vt 0 0
vt 0 0
vt 0 0
vt 0 0
vt 0 0
vt 0 0
vt 0 0
vt 0 0
vt 0 0
vt 0 0
vt 0 0
vt 0 0
vt 0 0
vt 0 0
vt 0 0
vt 0 0
vt 0 0
vt 0 0
vt 0 0
vt 0 0
vt 0 0
vt 0 0
vt 0 0
vt 0 0
vt 0 0
vt 0 0
vt 0 0
vt 0 0
vt 0 0
vt 0 0
vt 0 0
vt 0 0
vt 0 0
vt 0 0
vt 0 0
vt 0 0
vt 0 0
vt 0 0
vt 0 0
vt 0 0
vt 0 0
vt 0 0
vt 0 0
vt 0 0
vt 0 0
vt 0 0
vt 0 0
vt 0 0
vt 0 0
vt 0 0
vt 0 0
vt 0 0
vt 0 0
vt 0 0
vt 0 0
vt 0 0
vt 0 0
vt 0 0
vt 0 0
vt 0 0
vt 0 0
vt 0 0
vt 0 0
vt 0 0
vt 0 0
vt 0 0
vt 0 0
vt 0 0
vt 0 0
vt 0 0
vt 0 0
vt 0 0
vt 0 0
vt 0 0
vt 0 0
vt 0 0
vt 0 0
vt 0 0
vt 0 0
vt 0 0
vt 0 0
vt 0 0
vt 0 0
vt 0 0
vt 0 0
vt 0 0
vt 0 0
vt 0 0
vt 0 0
vt 0 0
vt 0 0
vt 0 0
vt 0 0
vt 0 0
vt 0 0
vt 0 0
vt 0 0
vt 0 0
vt 0 0
vt 0 0
vt 0 0
vt 0 0
vt 0 0
vt 0 0
vt 0 0
vt 0 0
vt 0 0
vt 0 0
vt 0 0
vt 0 0
vt 0 0
vt 0 0
vt 0 0
vt 0 0
vt 0 0
vt 0 0
vt 0 0
vt 0 0
vt 0 0
vt 0 0
vt 0 0
vt 0 0
vt 0 0
vt 0 0
vt 0 0
vt 0 0
vt 0 0
vt 0 0
vt 0 0
vt 0 0
vt 0 0
vt 0 0
vt 0 0
vt 0 0
vt 0 0
vt 0 0
vt 0 0
vt 0 0
vt 0 0
vt 0 0
vt 0 0
vt 0 0
vt 0 0
vt 0 0
vt 0 0
vt 0 0
vt 0 0
vt 0 0
vt 0 0
vt 0 0
vt 0 0
vt 0 0
vt 0 0
vt 0 0
vt 0 0
vt 0 0
vt 0 0
vt 0 0
vt 0 0
vt 0 0
vt 0 0
vt 0 0
vt 0 0
vt 0 0
vt 0 0
vt 0 0
vt 0 0
vt 0 0
vt 0 0
vt 0 0
vt 0 0
vt 0 0
vt 0 0
vt 0 0
vt 0 0
vt 0 0
vt 0 0
vt 0 0
vt 0 0
vt 0 0
vt 0 0
vt 0 0
vt 0 0
vt 0 0
vt 0 0
vt 0 0
vt 0 0
vt 0 0
vt 0 0
vt 0 0
vt 0 0
vt 0 0
vt 0 0
vt 0 0
vt 0 0
vt 0 0
vt 0 0
vt 0 0
vt 0 0
vt 0 0
vt 0 0
vt 0 0
vt 0 0
vt 0 0
vt 0 0
vt 0 0
vt 0 0
vt 0 0
vt 0 0
vt 0 0
vt 0 0
vt 0 0
vt 0 0
vt 0 0
vt 0 0
vt 0 0
vt 0 0
vt 0 0
vt 0 0
vt 0 0
vt 0 0
vt 0 0
vt 0 0
vt 0 0
vt 0 0
vt 0 0
vt 0 0
vt 0 0
vt 0 0
vt 0 0
vt 0 0
vt 0 0
vt 0 0
vt 0 0
vt 0 0
vt 0 0
vt 0 0
vt 0 0
vt 0 0
vt 0 0
vt 0 0
vt 0 0
vt 0 0
vt 0 0
vt 0 0
vt 0 0
vt 0 0
vt 0 0
vt 0 0
vt 0 0
vt 0 0
vt 0 0
vt 0 0
vt 0 0
vt 0 0
vt 0 0
vt 0 0
vt 0 0
vt 0 0
vt 0 0
vt 0 0
vt 0 0
vt 0 0
vt 0 0
vt 0 0
vt 0 0
vt 0 0
vt 0 0
vt 0 0
vt 0 0
vt 0 0
vt 0 0
vt 0 0
vt 0 0
vt 0 0
vt 0 0
vt 0 0
vt 0 0
vt 0 0
vt 0 0
vt 0 0
vt 0 0
vt 0 0
vt 0 0
vt 0 0
vt 0 0
vt 0 0
vt 0 0
vt 0 0
vt 0 0
vt 0 0
usemtl MB_222_official_12180
s off
f 286/1 1/2 277/3
f 1/4 12/5 277/6
f 2/7 1/8 285/9
f 1/10 286/11 285/12
f 285/13 193/14 2/15
f 193/16 3/17 2/18
f 193/19 284/20 3/21
f 284/22 4/23 3/24
f 284/25 283/26 4/27
f 283/28 5/29 4/30
f 283/31 278/32 5/33
f 278/34 11/35 5/36
f 282/37 6/38 275/39
f 6/40 509/41 275/42
f 282/43 281/44 6/45
f 281/46 7/47 6/48
f 281/49 280/50 7/51
f 280/52 8/53 7/54
f 280/55 279/56 8/57
f 279/58 9/59 8/60
f 279/61 276/62 9/63
f 276/64 13/65 9/66
f 481/67 273/68 511/69
f 273/70 505/71 511/72
f 298/73 86/74 276/75
f 86/76 13/77 276/78
f 530/79 14/80 274/81
f 14/82 507/83 274/84
f 528/85 15/86 529/87
f 15/88 16/89 529/90
f 15/91 508/92 16/93
f 508/94 506/95 16/96
f 14/97 510/98 507/99
f 510/100 18/101 507/102
f 86/103 89/104 13/105
f 89/106 20/107 13/108
f 511/109 505/110 512/111
f 505/112 17/113 512/114
f 9/115 13/116 24/117
f 13/118 20/119 24/120
f 8/121 9/122 25/123
f 9/124 24/125 25/126
f 7/127 8/128 26/129
f 8/130 25/131 26/132
f 6/133 7/134 27/135
f 7/136 26/137 27/138
f 6/139 27/140 509/141
f 27/142 19/143 509/144
f 5/145 11/146 28/147
f 11/148 22/149 28/150
f 4/151 5/152 29/153
f 5/154 28/155 29/156
f 3/157 4/158 30/159
f 4/160 29/161 30/162
f 2/163 3/164 31/165
f 3/166 30/167 31/168
f 1/169 2/170 32/171
f 2/172 31/173 32/174
f 1/175 32/176 12/177
f 32/178 21/179 12/180
f 32/181 33/182 21/183
f 33/184 44/185 21/186
f 32/187 31/188 33/189
f 31/190 34/191 33/192
f 31/193 30/194 34/195
f 30/196 35/197 34/198
f 30/199 29/200 35/201
f 29/202 36/203 35/204
f 29/205 28/206 36/207
f 28/208 37/209 36/210
f 28/211 22/212 37/213
f 22/214 43/215 37/216
f 27/217 38/218 19/219
f 38/220 513/221 19/222
f 27/223 26/224 38/225
f 26/226 39/227 38/228
f 26/229 25/230 39/231
f 25/232 40/233 39/234
f 25/235 24/236 40/237
f 24/238 41/239 40/240
f 24/241 20/242 41/243
f 20/244 45/245 41/246
f 512/247 17/248 515/249
f 17/250 514/251 515/252
f 89/253 87/254 20/255
f 87/256 45/257 20/258
f 510/259 46/260 18/261
f 46/262 516/263 18/264
f 508/265 47/266 506/267
f 47/268 48/269 506/270
f 47/271 518/272 48/273
f 518/274 517/275 48/276
f 46/277 519/278 516/279
f 519/280 50/281 516/282
f 87/283 90/284 45/285
f 90/286 52/287 45/288
f 515/289 514/290 520/291
f 514/292 49/293 520/294
f 41/295 45/296 56/297
f 45/298 52/299 56/300
f 40/301 41/302 57/303
f 41/304 56/305 57/306
f 39/307 40/308 58/309
f 40/310 57/311 58/312
f 38/313 39/314 59/315
f 39/316 58/317 59/318
f 38/319 59/320 513/321
f 59/322 51/323 513/324
f 37/325 43/326 60/327
f 43/328 54/329 60/330
f 36/331 37/332 61/333
f 37/334 60/335 61/336
f 35/337 36/338 62/339
f 36/340 61/341 62/342
f 34/343 35/344 63/345
f 35/346 62/347 63/348
f 33/349 34/350 64/351
f 34/352 63/353 64/354
f 33/355 64/356 44/357
f 64/358 53/359 44/360
f 64/361 65/362 53/363
f 65/364 76/365 53/366
f 64/367 63/368 65/369
f 63/370 66/371 65/372
f 63/373 62/374 66/375
f 62/376 67/377 66/378
f 62/379 61/380 67/381
f 61/382 68/383 67/384
f 61/385 60/386 68/387
f 60/388 69/389 68/390
f 60/391 54/392 69/393
f 54/394 75/395 69/396
f 59/397 70/398 51/399
f 70/400 521/401 51/402
f 59/403 58/404 70/405
f 58/406 71/407 70/408
f 58/409 57/410 71/411
f 57/412 72/413 71/414
f 57/415 56/416 72/417
f 56/418 73/419 72/420
f 56/421 52/422 73/423
f 52/424 77/425 73/426
f 520/427 49/428 523/429
f 49/430 522/431 523/432
f 90/433 88/434 52/435
f 88/436 77/437 52/438
f 519/439 78/440 50/441
f 78/442 524/443 50/444
f 518/445 79/446 517/447
f 79/448 80/449 517/450
f 79/451 526/452 80/453
f 526/454 525/455 80/456
f 78/457 527/458 524/459
f 527/460 167/461 524/462
f 88/463 192/464 77/465
f 192/466 169/467 77/468
f 523/469 522/470 603/471
f 522/472 166/473 603/474
f 73/475 77/476 172/477
f 77/478 169/479 172/480
f 72/481 73/482 173/483
f 73/484 172/485 173/486
f 71/487 72/488 174/489
f 72/490 173/491 174/492
f 70/493 71/494 175/495
f 71/496 174/497 175/498
f 70/499 175/500 521/501
f 175/502 168/503 521/504
f 69/505 75/506 176/507
f 75/508 171/509 176/510
f 68/511 69/512 177/513
f 69/514 176/515 177/516
f 67/517 68/518 178/519
f 68/520 177/521 178/522
f 66/523 67/524 179/525
f 67/526 178/527 179/528
f 65/529 66/530 180/531
f 66/532 179/533 180/534
f 65/535 180/536 76/537
f 180/538 170/539 76/540
f 76/541 170/542 85/543
f 170/544 186/545 85/546
f 53/547 76/548 84/549
f 76/550 85/551 84/552
f 44/553 53/554 83/555
f 53/556 84/557 83/558
f 21/559 44/560 82/561
f 44/562 83/563 82/564
f 12/565 21/566 81/567
f 21/568 82/569 81/570
f 277/571 12/572 292/573
f 12/574 81/575 292/576
f 85/577 186/578 88/579
f 186/580 192/581 88/582
f 84/583 85/584 90/585
f 85/586 88/587 90/588
f 83/589 84/590 87/591
f 84/592 90/593 87/594
f 82/595 83/596 89/597
f 83/598 87/599 89/600
f 81/601 82/602 86/603
f 82/604 89/605 86/606
f 292/607 81/608 298/609
f 81/610 86/611 298/612
f 407/613 397/614 91/615
f 397/616 101/617 91/618
f 407/619 91/620 406/621
f 91/622 92/623 406/624
f 406/625 92/626 299/627
f 92/628 93/629 299/630
f 299/631 93/632 405/633
f 93/634 94/635 405/636
f 405/637 94/638 404/639
f 94/640 95/641 404/642
f 404/643 95/644 398/645
f 95/646 100/647 398/648
f 403/649 395/650 96/651
f 395/652 535/653 96/654
f 403/655 96/656 402/657
f 96/658 97/659 402/660
f 402/661 97/662 401/663
f 97/664 98/665 401/666
f 401/667 98/668 400/669
f 98/670 99/671 400/672
f 400/673 99/674 396/675
f 99/676 102/677 396/678
f 646/679 598/680 393/681
f 598/682 105/683 393/684
f 421/685 396/686 187/687
f 396/688 102/689 187/690
f 548/691 394/692 103/693
f 394/694 533/695 103/696
f 546/697 547/698 104/699
f 547/700 531/701 104/702
f 104/703 531/704 534/705
f 531/706 532/707 534/708
f 103/709 533/710 536/711
f 533/712 107/713 536/714
f 187/715 102/716 190/717
f 102/718 109/719 190/720
f 598/721 599/722 105/723
f 599/724 106/725 105/726
f 99/727 112/728 102/729
f 112/730 109/731 102/732
f 98/733 113/734 99/735
f 113/736 112/737 99/738
f 97/739 114/740 98/741
f 114/742 113/743 98/744
f 96/745 115/746 97/747
f 115/748 114/749 97/750
f 96/751 535/752 115/753
f 535/754 108/755 115/756
f 95/757 116/758 100/759
f 116/760 111/761 100/762
f 94/763 117/764 95/765
f 117/766 116/767 95/768
f 93/769 118/770 94/771
f 118/772 117/773 94/774
f 92/775 119/776 93/777
f 119/778 118/779 93/780
f 91/781 120/782 92/783
f 120/784 119/785 92/786
f 91/787 101/788 120/789
f 101/790 110/791 120/792
f 120/793 110/794 121/795
f 110/796 131/797 121/798
f 120/799 121/800 119/801
f 121/802 122/803 119/804
f 119/805 122/806 118/807
f 122/808 123/809 118/810
f 118/811 123/812 117/813
f 123/814 124/815 117/816
f 117/817 124/818 116/819
f 124/820 125/821 116/822
f 116/823 125/824 111/825
f 125/826 130/827 111/828
f 115/829 108/830 126/831
f 108/832 537/833 126/834
f 115/835 126/836 114/837
f 126/838 127/839 114/840
f 114/841 127/842 113/843
f 127/844 128/845 113/846
f 113/847 128/848 112/849
f 128/850 129/851 112/852
f 112/853 129/854 109/855
f 129/856 132/857 109/858
f 599/859 600/860 106/861
f 600/862 538/863 106/864
f 190/865 109/866 188/867
f 109/868 132/869 188/870
f 536/871 107/872 133/873
f 107/874 539/875 133/876
f 534/877 532/878 134/879
f 532/880 135/881 134/882
f 134/883 135/884 541/885
f 135/886 540/887 541/888
f 133/889 539/890 542/891
f 539/892 137/893 542/894
f 188/895 132/896 191/897
f 132/898 139/899 191/900
f 600/901 601/902 538/903
f 601/904 136/905 538/906
f 129/907 142/908 132/909
f 142/910 139/911 132/912
f 128/913 143/914 129/915
f 143/916 142/917 129/918
f 127/919 144/920 128/921
f 144/922 143/923 128/924
f 126/925 145/926 127/927
f 145/928 144/929 127/930
f 126/931 537/932 145/933
f 537/934 138/935 145/936
f 125/937 146/938 130/939
f 146/940 141/941 130/942
f 124/943 147/944 125/945
f 147/946 146/947 125/948
f 123/949 148/950 124/951
f 148/952 147/953 124/954
f 122/955 149/956 123/957
f 149/958 148/959 123/960
f 121/961 150/962 122/963
f 150/964 149/965 122/966
f 121/967 131/968 150/969
f 131/970 140/971 150/972
f 150/973 140/974 151/975
f 140/976 161/977 151/978
f 150/979 151/980 149/981
f 151/982 152/983 149/984
f 149/985 152/986 148/987
f 152/988 153/989 148/990
f 148/991 153/992 147/993
f 153/994 154/995 147/996
f 147/997 154/998 146/999
f 154/1000 155/1001 146/1002
f 146/1003 155/1004 141/1005
f 155/1006 160/1007 141/1008
f 145/1009 138/1010 156/1011
f 138/1012 543/1013 156/1014
f 145/1015 156/1016 144/1017
f 156/1018 157/1019 144/1020
f 144/1021 157/1022 143/1023
f 157/1024 158/1025 143/1026
f 143/1027 158/1028 142/1029
f 158/1030 159/1031 142/1032
f 142/1033 159/1034 139/1035
f 159/1036 162/1037 139/1038
f 601/1039 602/1040 136/1041
f 602/1042 544/1043 136/1044
f 191/1045 139/1046 189/1047
f 139/1048 162/1049 189/1050
f 542/1051 137/1052 163/1053
f 137/1054 545/1055 163/1056
f 541/1057 540/1058 164/1059
f 540/1060 165/1061 164/1062
f 164/1063 165/1064 526/1065
f 165/1066 525/1067 526/1068
f 163/1069 545/1070 527/1071
f 545/1072 167/1073 527/1074
f 189/1075 162/1076 192/1077
f 162/1078 169/1079 192/1080
f 602/1081 603/1082 544/1083
f 603/1084 166/1085 544/1086
f 159/1087 172/1088 162/1089
f 172/1090 169/1091 162/1092
f 158/1093 173/1094 159/1095
f 173/1096 172/1097 159/1098
f 157/1099 174/1100 158/1101
f 174/1102 173/1103 158/1104
f 156/1105 175/1106 157/1107
f 175/1108 174/1109 157/1110
f 156/1111 543/1112 175/1113
f 543/1114 168/1115 175/1116
f 155/1117 176/1118 160/1119
f 176/1120 171/1121 160/1122
f 154/1123 177/1124 155/1125
f 177/1126 176/1127 155/1128
f 153/1129 178/1130 154/1131
f 178/1132 177/1133 154/1134
f 152/1135 179/1136 153/1137
f 179/1138 178/1139 153/1140
f 151/1141 180/1142 152/1143
f 180/1144 179/1145 152/1146
f 151/1147 161/1148 180/1149
f 161/1150 170/1151 180/1152
f 161/1153 185/1154 170/1155
f 185/1156 186/1157 170/1158
f 140/1159 184/1160 161/1161
f 184/1162 185/1163 161/1164
f 131/1165 183/1166 140/1167
f 183/1168 184/1169 140/1170
f 110/1171 182/1172 131/1173
f 182/1174 183/1175 131/1176
f 101/1177 181/1178 110/1179
f 181/1180 182/1181 110/1182
f 397/1183 414/1184 101/1185
f 414/1186 181/1187 101/1188
f 185/1189 189/1190 186/1191
f 189/1192 192/1193 186/1194
f 184/1195 191/1196 185/1197
f 191/1198 189/1199 185/1200
f 183/1201 188/1202 184/1203
f 188/1204 191/1205 184/1206
f 182/1207 190/1208 183/1209
f 190/1210 188/1211 183/1212
f 181/1213 187/1214 182/1215
f 187/1216 190/1217 182/1218
f 414/1219 421/1220 181/1221
f 421/1222 187/1223 181/1224
f 286/1225 277/1226 194/1227
f 277/1228 205/1229 194/1230
f 286/1231 194/1232 285/1233
f 194/1234 195/1235 285/1236
f 285/1237 195/1238 193/1239
f 195/1240 196/1241 193/1242
f 193/1243 196/1244 284/1245
f 196/1246 197/1247 284/1248
f 284/1249 197/1250 283/1251
f 197/1252 198/1253 283/1254
f 283/1255 198/1256 278/1257
f 198/1258 204/1259 278/1260
f 282/1261 275/1262 199/1263
f 275/1264 553/1265 199/1266
f 282/1267 199/1268 281/1269
f 199/1270 200/1271 281/1272
f 281/1273 200/1274 280/1275
f 200/1276 201/1277 280/1278
f 280/1279 201/1280 279/1281
f 201/1282 202/1283 279/1284
f 279/1285 202/1286 276/1287
f 202/1288 206/1289 276/1290
f 481/1291 555/1292 273/1293
f 555/1294 549/1295 273/1296
f 298/1297 276/1298 293/1299
f 276/1300 206/1301 293/1302
f 530/1303 274/1304 207/1305
f 274/1306 551/1307 207/1308
f 528/1309 529/1310 208/1311
f 529/1312 209/1313 208/1314
f 208/1315 209/1316 552/1317
f 209/1318 550/1319 552/1320
f 207/1321 551/1322 554/1323
f 551/1324 211/1325 554/1326
f 293/1327 206/1328 296/1329
f 206/1330 213/1331 296/1332
f 555/1333 556/1334 549/1335
f 556/1336 210/1337 549/1338
f 202/1339 217/1340 206/1341
f 217/1342 213/1343 206/1344
f 201/1345 218/1346 202/1347
f 218/1348 217/1349 202/1350
f 200/1351 219/1352 201/1353
f 219/1354 218/1355 201/1356
f 199/1357 220/1358 200/1359
f 220/1360 219/1361 200/1362
f 199/1363 553/1364 220/1365
f 553/1366 212/1367 220/1368
f 198/1369 221/1370 204/1371
f 221/1372 215/1373 204/1374
f 197/1375 222/1376 198/1377
f 222/1378 221/1379 198/1380
f 196/1381 223/1382 197/1383
f 223/1384 222/1385 197/1386
f 195/1387 224/1388 196/1389
f 224/1390 223/1391 196/1392
f 194/1393 225/1394 195/1395
f 225/1396 224/1397 195/1398
f 194/1399 205/1400 225/1401
f 205/1402 214/1403 225/1404
f 225/1405 214/1406 226/1407
f 214/1408 236/1409 226/1410
f 225/1411 226/1412 224/1413
f 226/1414 227/1415 224/1416
f 224/1417 227/1418 223/1419
f 227/1420 228/1421 223/1422
f 223/1423 228/1424 222/1425
f 228/1426 229/1427 222/1428
f 222/1429 229/1430 221/1431
f 229/1432 230/1433 221/1434
f 221/1435 230/1436 215/1437
f 230/1438 235/1439 215/1440
f 220/1441 212/1442 231/1443
f 212/1444 557/1445 231/1446
f 220/1447 231/1448 219/1449
f 231/1450 232/1451 219/1452
f 219/1453 232/1454 218/1455
f 232/1456 233/1457 218/1458
f 218/1459 233/1460 217/1461
f 233/1462 234/1463 217/1464
f 217/1465 234/1466 213/1467
f 234/1468 237/1469 213/1470
f 556/1471 480/1472 210/1473
f 480/1474 558/1475 210/1476
f 296/1477 213/1478 294/1479
f 213/1480 237/1481 294/1482
f 554/1483 211/1484 238/1485
f 211/1486 559/1487 238/1488
f 552/1489 550/1490 239/1491
f 550/1492 240/1493 239/1494
f 239/1495 240/1496 561/1497
f 240/1498 560/1499 561/1500
f 238/1501 559/1502 562/1503
f 559/1504 242/1505 562/1506
f 294/1507 237/1508 297/1509
f 237/1510 244/1511 297/1512
f 480/1513 565/1514 558/1515
f 565/1516 241/1517 558/1518
f 234/1519 248/1520 237/1521
f 248/1522 244/1523 237/1524
f 233/1525 249/1526 234/1527
f 249/1528 248/1529 234/1530
f 232/1531 250/1532 233/1533
f 250/1534 249/1535 233/1536
f 231/1537 251/1538 232/1539
f 251/1540 250/1541 232/1542
f 231/1543 557/1544 251/1545
f 557/1546 243/1547 251/1548
f 230/1549 252/1550 235/1551
f 252/1552 246/1553 235/1554
f 229/1555 253/1556 230/1557
f 253/1558 252/1559 230/1560
f 228/1561 254/1562 229/1563
f 254/1564 253/1565 229/1566
f 227/1567 255/1568 228/1569
f 255/1570 254/1571 228/1572
f 226/1573 256/1574 227/1575
f 256/1576 255/1577 227/1578
f 226/1579 236/1580 256/1581
f 236/1582 245/1583 256/1584
f 256/1585 245/1586 257/1587
f 245/1588 268/1589 257/1590
f 256/1591 257/1592 255/1593
f 257/1594 258/1595 255/1596
f 255/1597 258/1598 254/1599
f 258/1600 259/1601 254/1602
f 254/1603 259/1604 253/1605
f 259/1606 260/1607 253/1608
f 253/1609 260/1610 252/1611
f 260/1612 261/1613 252/1614
f 252/1615 261/1616 246/1617
f 261/1618 267/1619 246/1620
f 251/1621 243/1622 262/1623
f 243/1624 563/1625 262/1626
f 251/1627 262/1628 250/1629
f 262/1630 263/1631 250/1632
f 250/1633 263/1634 249/1635
f 263/1636 264/1637 249/1638
f 249/1639 264/1640 248/1641
f 264/1642 265/1643 248/1644
f 248/1645 265/1646 244/1647
f 265/1648 269/1649 244/1650
f 565/1651 566/1652 241/1653
f 566/1654 564/1655 241/1656
f 297/1657 244/1658 295/1659
f 244/1660 269/1661 295/1662
f 562/1663 242/1664 270/1665
f 242/1666 567/1667 270/1668
f 561/1669 560/1670 271/1671
f 560/1672 272/1673 271/1674
f 271/1675 272/1676 569/1677
f 272/1678 568/1679 569/1680
f 270/1681 567/1682 570/1683
f 567/1684 378/1685 570/1686
f 295/1687 269/1688 420/1689
f 269/1690 380/1691 420/1692
f 566/1693 619/1694 564/1695
f 619/1696 377/1697 564/1698
f 265/1699 383/1700 269/1701
f 383/1702 380/1703 269/1704
f 264/1705 384/1706 265/1707
f 384/1708 383/1709 265/1710
f 263/1711 385/1712 264/1713
f 385/1714 384/1715 264/1716
f 262/1717 386/1718 263/1719
f 386/1720 385/1721 263/1722
f 262/1723 563/1724 386/1725
f 563/1726 379/1727 386/1728
f 261/1729 387/1730 267/1731
f 387/1732 382/1733 267/1734
f 260/1735 388/1736 261/1737
f 388/1738 387/1739 261/1740
f 259/1741 389/1742 260/1743
f 389/1744 388/1745 260/1746
f 258/1747 390/1748 259/1749
f 390/1750 389/1751 259/1752
f 257/1753 391/1754 258/1755
f 391/1756 390/1757 258/1758
f 257/1759 268/1760 391/1761
f 268/1762 381/1763 391/1764
f 268/1765 291/1766 381/1767
f 291/1768 413/1769 381/1770
f 245/1771 290/1772 268/1773
f 290/1774 291/1775 268/1776
f 236/1777 289/1778 245/1779
f 289/1780 290/1781 245/1782
f 214/1783 288/1784 236/1785
f 288/1786 289/1787 236/1788
f 205/1789 287/1790 214/1791
f 287/1792 288/1793 214/1794
f 277/1795 292/1796 205/1797
f 292/1798 287/1799 205/1800
f 291/1801 295/1802 413/1803
f 295/1804 420/1805 413/1806
f 290/1807 297/1808 291/1809
f 297/1810 295/1811 291/1812
f 289/1813 294/1814 290/1815
f 294/1816 297/1817 290/1818
f 288/1819 296/1820 289/1821
f 296/1822 294/1823 289/1824
f 287/1825 293/1826 288/1827
f 293/1828 296/1829 288/1830
f 292/1831 298/1832 287/1833
f 298/1834 293/1835 287/1836
f 407/1837 300/1838 397/1839
f 300/1840 311/1841 397/1842
f 407/1843 406/1844 300/1845
f 406/1846 301/1847 300/1848
f 406/1849 299/1850 301/1851
f 299/1852 302/1853 301/1854
f 299/1855 405/1856 302/1857
f 405/1858 303/1859 302/1860
f 405/1861 404/1862 303/1863
f 404/1864 304/1865 303/1866
f 404/1867 398/1868 304/1869
f 398/1870 310/1871 304/1872
f 403/1873 305/1874 395/1875
f 305/1876 575/1877 395/1878
f 403/1879 402/1880 305/1881
f 402/1882 306/1883 305/1884
f 402/1885 401/1886 306/1887
f 401/1888 307/1889 306/1890
f 401/1891 400/1892 307/1893
f 400/1894 308/1895 307/1896
f 400/1897 396/1898 308/1899
f 396/1900 312/1901 308/1902
f 646/1903 393/1904 615/1905
f 393/1906 315/1907 615/1908
f 421/1909 415/1910 396/1911
f 415/1912 312/1913 396/1914
f 548/1915 313/1916 394/1917
f 313/1918 573/1919 394/1920
f 546/1921 314/1922 547/1923
f 314/1924 571/1925 547/1926
f 314/1927 574/1928 571/1929
f 574/1930 572/1931 571/1932
f 313/1933 576/1934 573/1935
f 576/1936 317/1937 573/1938
f 415/1939 418/1940 312/1941
f 418/1942 319/1943 312/1944
f 615/1945 315/1946 616/1947
f 315/1948 316/1949 616/1950
f 308/1951 312/1952 322/1953
f 312/1954 319/1955 322/1956
f 307/1957 308/1958 323/1959
f 308/1960 322/1961 323/1962
f 306/1963 307/1964 324/1965
f 307/1966 323/1967 324/1968
f 305/1969 306/1970 325/1971
f 306/1972 324/1973 325/1974
f 305/1975 325/1976 575/1977
f 325/1978 318/1979 575/1980
f 304/1981 310/1982 326/1983
f 310/1984 321/1985 326/1986
f 303/1987 304/1988 327/1989
f 304/1990 326/1991 327/1992
f 302/1993 303/1994 328/1995
f 303/1996 327/1997 328/1998
f 301/1999 302/2000 329/2001
f 302/2002 328/2003 329/2004
f 300/2005 301/2006 330/2007
f 301/2008 329/2009 330/2010
f 300/2011 330/2012 311/2013
f 330/2014 320/2015 311/2016
f 330/2017 331/2018 320/2019
f 331/2020 342/2021 320/2022
f 330/2023 329/2024 331/2025
f 329/2026 332/2027 331/2028
f 329/2029 328/2030 332/2031
f 328/2032 333/2033 332/2034
f 328/2035 327/2036 333/2037
f 327/2038 334/2039 333/2040
f 327/2041 326/2042 334/2043
f 326/2044 335/2045 334/2046
f 326/2047 321/2048 335/2049
f 321/2050 341/2051 335/2052
f 325/2053 336/2054 318/2055
f 336/2056 577/2057 318/2058
f 325/2059 324/2060 336/2061
f 324/2062 337/2063 336/2064
f 324/2065 323/2066 337/2067
f 323/2068 338/2069 337/2070
f 323/2071 322/2072 338/2073
f 322/2074 339/2075 338/2076
f 322/2077 319/2078 339/2079
f 319/2080 343/2081 339/2082
f 616/2083 316/2084 648/2085
f 316/2086 578/2087 648/2088
f 418/2089 416/2090 319/2091
f 416/2092 343/2093 319/2094
f 576/2095 344/2096 317/2097
f 344/2098 579/2099 317/2100
f 574/2101 345/2102 572/2103
f 345/2104 346/2105 572/2106
f 345/2107 581/2108 346/2109
f 581/2110 580/2111 346/2112
f 344/2113 582/2114 579/2115
f 582/2116 348/2117 579/2118
f 416/2119 419/2120 343/2121
f 419/2122 350/2123 343/2124
f 648/2125 578/2126 617/2127
f 578/2128 347/2129 617/2130
f 339/2131 343/2132 353/2133
f 343/2134 350/2135 353/2136
f 338/2137 339/2138 354/2139
f 339/2140 353/2141 354/2142
f 337/2143 338/2144 355/2145
f 338/2146 354/2147 355/2148
f 336/2149 337/2150 356/2151
f 337/2152 355/2153 356/2154
f 336/2155 356/2156 577/2157
f 356/2158 349/2159 577/2160
f 335/2161 341/2162 357/2163
f 341/2164 352/2165 357/2166
f 334/2167 335/2168 358/2169
f 335/2170 357/2171 358/2172
f 333/2173 334/2174 359/2175
f 334/2176 358/2177 359/2178
f 332/2179 333/2180 360/2181
f 333/2182 359/2183 360/2184
f 331/2185 332/2186 361/2187
f 332/2188 360/2189 361/2190
f 331/2191 361/2192 342/2193
f 361/2194 351/2195 342/2196
f 361/2197 362/2198 351/2199
f 362/2200 372/2201 351/2202
f 361/2203 360/2204 362/2205
f 360/2206 363/2207 362/2208
f 360/2209 359/2210 363/2211
f 359/2212 364/2213 363/2214
f 359/2215 358/2216 364/2217
f 358/2218 365/2219 364/2220
f 358/2221 357/2222 365/2223
f 357/2224 366/2225 365/2226
f 357/2227 352/2228 366/2229
f 352/2230 371/2231 366/2232
f 356/2233 367/2234 349/2235
f 367/2236 583/2237 349/2238
f 356/2239 355/2240 367/2241
f 355/2242 368/2243 367/2244
f 355/2245 354/2246 368/2247
f 354/2248 369/2249 368/2250
f 354/2251 353/2252 369/2253
f 353/2254 370/2255 369/2256
f 353/2257 350/2258 370/2259
f 350/2260 373/2261 370/2262
f 617/2263 347/2264 618/2265
f 347/2266 584/2267 618/2268
f 419/2269 417/2270 350/2271
f 417/2272 373/2273 350/2274
f 582/2275 374/2276 348/2277
f 374/2278 585/2279 348/2280
f 581/2281 375/2282 580/2283
f 375/2284 376/2285 580/2286
f 375/2287 569/2288 376/2289
f 569/2290 568/2291 376/2292
f 374/2293 570/2294 585/2295
f 570/2296 378/2297 585/2298
f 417/2299 420/2300 373/2301
f 420/2302 380/2303 373/2304
f 618/2305 584/2306 619/2307
f 584/2308 377/2309 619/2310
f 370/2311 373/2312 383/2313
f 373/2314 380/2315 383/2316
f 369/2317 370/2318 384/2319
f 370/2320 383/2321 384/2322
f 368/2323 369/2324 385/2325
f 369/2326 384/2327 385/2328
f 367/2329 368/2330 386/2331
f 368/2332 385/2333 386/2334
f 367/2335 386/2336 583/2337
f 386/2338 379/2339 583/2340
f 366/2341 371/2342 387/2343
f 371/2344 382/2345 387/2346
f 365/2347 366/2348 388/2349
f 366/2350 387/2351 388/2352
f 364/2353 365/2354 389/2355
f 365/2356 388/2357 389/2358
f 363/2359 364/2360 390/2361
f 364/2362 389/2363 390/2364
f 362/2365 363/2366 391/2367
f 363/2368 390/2369 391/2370
f 362/2371 391/2372 372/2373
f 391/2374 381/2375 372/2376
f 422/2377 423/2378 430/2379
f 423/2380 431/2381 430/2382
f 372/2383 381/2384 412/2385
f 381/2386 413/2387 412/2388
f 351/2389 372/2390 411/2391
f 372/2392 412/2393 411/2394
f 342/2395 351/2396 410/2397
f 351/2398 411/2399 410/2400
f 320/2401 342/2402 409/2403
f 342/2404 410/2405 409/2406
f 311/2407 320/2408 408/2409
f 320/2410 409/2411 408/2412
f 397/2413 311/2414 414/2415
f 311/2416 408/2417 414/2418
f 412/2419 413/2420 417/2421
f 413/2422 420/2423 417/2424
f 411/2425 412/2426 419/2427
f 412/2428 417/2429 419/2430
f 410/2431 411/2432 416/2433
f 411/2434 419/2435 416/2436
f 409/2437 410/2438 418/2439
f 410/2440 416/2441 418/2442
f 408/2443 409/2444 415/2445
f 409/2446 418/2447 415/2448
f 414/2449 408/2450 421/2451
f 408/2452 415/2453 421/2454
f 423/2455 424/2456 431/2457
f 424/2458 589/2459 431/2460
f 488/2461 490/2462 425/2463
f 490/2464 426/2465 425/2466
f 589/2467 424/2468 426/2469
f 424/2470 425/2471 426/2472
f 586/2473 587/2474 489/2475
f 587/2476 635/2477 489/2478
f 587/2479 590/2480 635/2481
f 590/2482 588/2483 635/2484
f 591/2485 429/2486 588/2487
f 591/2488 588/2489 590/2490
f 309/2491 612/2492 392/2493
f 612/2494 596/2495 392/2496
f 427/2497 597/2498 428/2499
f 597/2500 592/2501 428/2502
f 589/2503 593/2504 431/2505
f 593/2506 594/2507 431/2508
f 428/2509 592/2510 589/2511
f 592/2512 593/2513 589/2514
f 392/2515 596/2516 427/2517
f 596/2518 597/2519 427/2520
f 431/2521 594/2522 430/2523
f 594/2524 595/2525 430/2526
f 23/2527 433/2528 10/2529
f 433/2530 437/2531 10/2532
f 503/2533 645/2534 457/2535
f 645/2536 432/2537 457/2538
f 42/2539 434/2540 23/2541
f 434/2542 433/2543 23/2544
f 443/2545 435/2546 74/2547
f 435/2548 436/2549 74/2550
f 74/2551 436/2552 55/2553
f 436/2554 434/2555 55/2556
f 10/2557 437/2558 645/2559
f 437/2560 432/2561 645/2562
f 55/2563 434/2564 42/2565
f 422/2566 430/2567 445/2568
f 430/2569 452/2570 445/2571
f 445/2572 452/2573 446/2574
f 452/2575 605/2576 446/2577
f 468/2578 447/2579 469/2580
f 447/2581 448/2582 469/2583
f 605/2584 448/2585 446/2586
f 448/2587 447/2588 446/2589
f 586/2590 489/2591 606/2592
f 489/2593 622/2594 606/2595
f 606/2596 622/2597 607/2598
f 622/2599 604/2600 607/2601
f 608/2602 604/2603 451/2604
f 608/2605 607/2606 604/2607
f 309/2608 444/2609 612/2610
f 444/2611 613/2612 612/2613
f 449/2614 450/2615 614/2616
f 450/2617 609/2618 614/2619
f 605/2620 452/2621 610/2622
f 452/2623 611/2624 610/2625
f 450/2626 605/2627 609/2628
f 605/2629 610/2630 609/2631
f 444/2632 449/2633 613/2634
f 449/2635 614/2636 613/2637
f 452/2638 430/2639 611/2640
f 430/2641 595/2642 611/2643
f 439/2644 438/2645 454/2646
f 438/2647 458/2648 454/2649
f 503/2650 457/2651 399/2652
f 457/2653 453/2654 399/2655
f 440/2656 439/2657 455/2658
f 439/2659 454/2660 455/2661
f 443/2662 442/2663 435/2664
f 442/2665 456/2666 435/2667
f 442/2668 441/2669 456/2670
f 441/2671 455/2672 456/2673
f 438/2674 399/2675 458/2676
f 399/2677 453/2678 458/2679
f 441/2680 440/2681 455/2682
f 484/2683 465/2684 495/2685
f 465/2686 474/2687 495/2688
f 465/2689 466/2690 474/2691
f 466/2692 621/2693 474/2694
f 468/2695 469/2696 467/2697
f 469/2698 470/2699 467/2700
f 621/2701 466/2702 470/2703
f 466/2704 467/2705 470/2706
f 631/2707 623/2708 489/2709
f 623/2710 622/2711 489/2712
f 623/2713 624/2714 622/2715
f 624/2716 620/2717 622/2718
f 625/2719 473/2720 620/2721
f 625/2722 620/2723 624/2724
f 482/2725 502/2726 464/2727
f 502/2728 629/2729 464/2730
f 471/2731 630/2732 472/2733
f 630/2734 626/2735 472/2736
f 621/2737 627/2738 474/2739
f 627/2740 628/2741 474/2742
f 472/2743 626/2744 621/2745
f 626/2746 627/2747 621/2748
f 464/2749 629/2750 471/2751
f 629/2752 630/2753 471/2754
f 474/2755 628/2756 495/2757
f 628/2758 641/2759 495/2760
f 460/2761 476/2762 459/2763
f 476/2764 479/2765 459/2766
f 503/2767 399/2768 642/2769
f 399/2770 475/2771 642/2772
f 340/2773 477/2774 460/2775
f 477/2776 476/2777 460/2778
f 463/2779 500/2780 462/2781
f 500/2782 478/2783 462/2784
f 462/2785 478/2786 461/2787
f 478/2788 477/2789 461/2790
f 459/2791 479/2792 399/2793
f 479/2794 475/2795 399/2796
f 461/2797 477/2798 340/2799
f 484/2800 495/2801 485/2802
f 495/2803 496/2804 485/2805
f 485/2806 496/2807 486/2808
f 496/2809 634/2810 486/2811
f 488/2812 487/2813 490/2814
f 487/2815 491/2816 490/2817
f 634/2818 491/2819 486/2820
f 491/2821 487/2822 486/2823
f 631/2824 489/2825 632/2826
f 489/2827 635/2828 632/2829
f 632/2830 635/2831 636/2832
f 635/2833 633/2834 636/2835
f 637/2836 633/2837 494/2838
f 637/2839 636/2840 633/2841
f 482/2842 483/2843 502/2844
f 483/2845 643/2846 502/2847
f 492/2848 493/2849 644/2850
f 493/2851 638/2852 644/2853
f 634/2854 496/2855 639/2856
f 496/2857 640/2858 639/2859
f 493/2860 634/2861 638/2862
f 634/2863 639/2864 638/2865
f 483/2866 492/2867 643/2868
f 492/2869 644/2870 643/2871
f 496/2872 495/2873 640/2874
f 495/2875 641/2876 640/2877
f 216/2878 203/2879 498/2880
f 203/2881 504/2882 498/2883
f 503/2884 642/2885 645/2886
f 642/2887 497/2888 645/2889
f 647/2890 216/2891 499/2892
f 216/2893 498/2894 499/2895
f 463/2896 266/2897 500/2898
f 266/2899 501/2900 500/2901
f 266/2902 247/2903 501/2904
f 247/2905 499/2906 501/2907
f 203/2908 645/2909 504/2910
f 645/2911 497/2912 504/2913
f 247/2914 647/2915 499/2916
f 685/2917 689/2918 707/2919
f 689/2920 704/2921 707/2922
f 653/2923 654/2924 655/2925
f 654/2926 657/2927 655/2928
f 654/2929 652/2930 657/2931
f 652/2932 656/2933 657/2934
f 659/2935 660/2936 661/2937
f 660/2938 663/2939 661/2940
f 660/2941 658/2942 663/2943
f 658/2944 662/2945 663/2946
f 674/2947 675/2948 676/2949
f 675/2950 678/2951 676/2952
f 675/2953 673/2954 678/2955
f 673/2956 677/2957 678/2958
f 661/2959 663/2960 664/2961
f 663/2962 666/2963 664/2964
f 663/2965 662/2966 666/2967
f 662/2968 665/2969 666/2970
f 664/2971 666/2972 667/2973
f 666/2974 669/2975 667/2976
f 666/2977 665/2978 669/2979
f 665/2980 668/2981 669/2982
f 676/2983 678/2984 679/2985
f 678/2986 681/2987 679/2988
f 678/2989 677/2990 681/2991
f 677/2992 680/2993 681/2994
f 679/2995 681/2996 682/2997
f 681/2998 684/2999 682/3000
f 681/3001 680/3002 684/3003
f 680/3004 683/3005 684/3006
f 689/3007 690/3008 691/3009
f 690/3010 693/3011 691/3012
f 690/3013 688/3014 693/3015
f 688/3016 692/3017 693/3018
f 667/3019 669/3020 670/3021
f 669/3022 672/3023 670/3024
f 669/3025 668/3026 672/3027
f 668/3028 671/3029 672/3030
f 670/3031 672/3032 674/3033
f 672/3034 675/3035 674/3036
f 672/3037 671/3038 675/3039
f 671/3040 673/3041 675/3042
f 682/3043 684/3044 685/3045
f 684/3046 687/3047 685/3048
f 684/3049 683/3050 687/3051
f 683/3052 686/3053 687/3054
f 685/3055 687/3056 689/3057
f 687/3058 690/3059 689/3060
f 687/3061 686/3062 690/3063
f 686/3064 688/3065 690/3066
f 691/3067 693/3068 694/3069
f 693/3070 696/3071 694/3072
f 693/3073 692/3074 696/3075
f 692/3076 695/3077 696/3078
f 655/3079 657/3080 659/3081
f 657/3082 660/3083 659/3084
f 657/3085 656/3086 660/3087
f 656/3088 658/3089 660/3090
f 694/3091 696/3092 649/3093
f 696/3094 651/3095 649/3096
f 696/3097 695/3098 651/3099
f 695/3100 650/3101 651/3102
f 649/3103 651/3104 653/3105
f 651/3106 654/3107 653/3108
f 651/3109 650/3110 654/3111
f 650/3112 652/3113 654/3114
f 701/3115 697/3116 702/3117
f 697/3118 699/3119 702/3120
f 702/3121 699/3122 700/3123
f 699/3124 698/3125 700/3126
f 704/3127 701/3128 705/3129
f 701/3130 702/3131 705/3132
f 705/3133 702/3134 703/3135
f 702/3136 700/3137 703/3138
f 707/3139 704/3140 708/3141
f 704/3142 705/3143 708/3144
f 708/3145 705/3146 706/3147
f 705/3148 703/3149 706/3150
f 710/3151 707/3152 711/3153
f 707/3154 708/3155 711/3156
f 711/3157 708/3158 709/3159
f 708/3160 706/3161 709/3162
f 713/3163 710/3164 714/3165
f 710/3166 711/3167 714/3168
f 714/3169 711/3170 712/3171
f 711/3172 709/3173 712/3174
f 716/3175 713/3176 717/3177
f 713/3178 714/3179 717/3180
f 717/3181 714/3182 715/3183
f 714/3184 712/3185 715/3186
f 719/3187 716/3188 720/3189
f 716/3190 717/3191 720/3192
f 720/3193 717/3194 718/3195
f 717/3196 715/3197 718/3198
f 722/3199 719/3200 723/3201
f 719/3202 720/3203 723/3204
f 723/3205 720/3206 721/3207
f 720/3208 718/3209 721/3210
f 725/3211 722/3212 726/3213
f 722/3214 723/3215 726/3216
f 726/3217 723/3218 724/3219
f 723/3220 721/3221 724/3222
f 728/3223 725/3224 729/3225
f 725/3226 726/3227 729/3228
f 729/3229 726/3230 727/3231
f 726/3232 724/3233 727/3234
f 731/3235 728/3236 732/3237
f 728/3238 729/3239 732/3240
f 732/3241 729/3242 730/3243
f 729/3244 727/3245 730/3246
f 734/3247 731/3248 735/3249
f 731/3250 732/3251 735/3252
f 735/3253 732/3254 733/3255
f 732/3256 730/3257 733/3258
f 737/3259 734/3260 738/3261
f 734/3262 735/3263 738/3264
f 738/3265 735/3266 736/3267
f 735/3268 733/3269 736/3270
f 740/3271 737/3272 741/3273
f 737/3274 738/3275 741/3276
f 741/3277 738/3278 739/3279
f 738/3280 736/3281 739/3282
f 743/3283 740/3284 744/3285
f 740/3286 741/3287 744/3288
f 744/3289 741/3290 742/3291
f 741/3292 739/3293 742/3294
f 697/3295 743/3296 699/3297
f 743/3298 744/3299 699/3300
f 699/3301 744/3302 698/3303
f 744/3304 742/3305 698/3306
f 664/3307 667/3308 728/3309
f 667/3310 725/3311 728/3312
f 689/3313 691/3314 704/3315
f 691/3316 701/3317 704/3318
f 667/3319 670/3320 725/3321
f 670/3322 722/3323 725/3324
f 697/3325 694/3326 743/3327
f 694/3328 649/3329 743/3330
f 691/3331 694/3332 701/3333
f 694/3334 697/3335 701/3336
f 670/3337 674/3338 722/3339
f 674/3340 719/3341 722/3342
f 743/3343 649/3344 740/3345
f 649/3346 653/3347 740/3348
f 674/3349 676/3350 719/3351
f 676/3352 716/3353 719/3354
f 653/3355 655/3356 740/3357
f 655/3358 737/3359 740/3360
f 676/3361 679/3362 716/3363
f 679/3364 713/3365 716/3366
f 655/3367 659/3368 737/3369
f 659/3370 734/3371 737/3372
f 679/3373 682/3374 713/3375
f 682/3376 710/3377 713/3378
f 659/3379 661/3380 734/3381
f 661/3382 731/3383 734/3384
f 682/3385 685/3386 710/3387
f 685/3388 707/3389 710/3390
f 661/3391 664/3392 731/3393
f 664/3394 728/3395 731/3396
f 783/3397 786/3398 752/3399
f 786/3400 753/3401 752/3402
f 683/3403 680/3404 773/3405
f 680/3406 776/3407 773/3408
f 798/3409 801/3410 757/3411
f 801/3412 758/3413 757/3414
f 771/3415 774/3416 748/3417
f 774/3418 749/3419 748/3420
f 801/3421 804/3422 758/3423
f 804/3424 759/3425 758/3426
f 788/3427 668/3428 791/3429
f 668/3430 665/3431 791/3432
f 677/3433 673/3434 779/3435
f 673/3436 782/3437 779/3438
f 761/3439 765/3440 745/3441
f 765/3442 746/3443 745/3444
f 668/3445 788/3446 671/3447
f 788/3448 785/3449 671/3450
f 762/3451 806/3452 695/3453
f 806/3454 650/3455 695/3456
f 804/3457 807/3458 759/3459
f 807/3460 760/3461 759/3462
f 792/3463 795/3464 755/3465
f 795/3466 756/3467 755/3468
f 652/3469 650/3470 803/3471
f 650/3472 806/3473 803/3474
f 767/3475 688/3476 770/3477
f 688/3478 686/3479 770/3480
f 767/3481 764/3482 688/3483
f 764/3484 692/3485 688/3486
f 777/3487 780/3488 750/3489
f 780/3490 751/3491 750/3492
f 786/3493 789/3494 753/3495
f 789/3496 754/3497 753/3498
f 773/3499 770/3500 683/3501
f 770/3502 686/3503 683/3504
f 795/3505 798/3506 756/3507
f 798/3508 757/3509 756/3510
f 768/3511 771/3512 747/3513
f 771/3514 748/3515 747/3516
f 800/3517 797/3518 656/3519
f 797/3520 658/3521 656/3522
f 789/3523 792/3524 754/3525
f 792/3526 755/3527 754/3528
f 780/3529 783/3530 751/3531
f 783/3532 752/3533 751/3534
f 785/3535 782/3536 671/3537
f 782/3538 673/3539 671/3540
f 680/3541 677/3542 776/3543
f 677/3544 779/3545 776/3546
f 807/3547 761/3548 760/3549
f 761/3550 745/3551 760/3552
f 656/3553 652/3554 800/3555
f 652/3556 803/3557 800/3558
f 765/3559 768/3560 746/3561
f 768/3562 747/3563 746/3564
f 662/3565 658/3566 794/3567
f 658/3568 797/3569 794/3570
f 774/3571 777/3572 749/3573
f 777/3574 750/3575 749/3576
f 791/3577 665/3578 794/3579
f 665/3580 662/3581 794/3582
f 765/3583 761/3584 766/3585
f 761/3586 763/3587 766/3588
f 766/3589 763/3590 764/3591
f 763/3592 762/3593 764/3594
f 768/3595 765/3596 769/3597
f 765/3598 766/3599 769/3600
f 769/3601 766/3602 767/3603
f 766/3604 764/3605 767/3606
f 771/3607 768/3608 772/3609
f 768/3610 769/3611 772/3612
f 772/3613 769/3614 770/3615
f 769/3616 767/3617 770/3618
f 774/3619 771/3620 775/3621
f 771/3622 772/3623 775/3624
f 775/3625 772/3626 773/3627
f 772/3628 770/3629 773/3630
f 777/3631 774/3632 778/3633
f 774/3634 775/3635 778/3636
f 778/3637 775/3638 776/3639
f 775/3640 773/3641 776/3642
f 780/3643 777/3644 781/3645
f 777/3646 778/3647 781/3648
f 781/3649 778/3650 779/3651
f 778/3652 776/3653 779/3654
f 783/3655 780/3656 784/3657
f 780/3658 781/3659 784/3660
f 784/3661 781/3662 782/3663
f 781/3664 779/3665 782/3666
f 786/3667 783/3668 787/3669
f 783/3670 784/3671 787/3672
f 787/3673 784/3674 785/3675
f 784/3676 782/3677 785/3678
f 789/3679 786/3680 790/3681
f 786/3682 787/3683 790/3684
f 790/3685 787/3686 788/3687
f 787/3688 785/3689 788/3690
f 792/3691 789/3692 793/3693
f 789/3694 790/3695 793/3696
f 793/3697 790/3698 791/3699
f 790/3700 788/3701 791/3702
f 795/3703 792/3704 796/3705
f 792/3706 793/3707 796/3708
f 796/3709 793/3710 794/3711
f 793/3712 791/3713 794/3714
f 798/3715 795/3716 799/3717
f 795/3718 796/3719 799/3720
f 799/3721 796/3722 797/3723
f 796/3724 794/3725 797/3726
f 801/3727 798/3728 802/3729
f 798/3730 799/3731 802/3732
f 802/3733 799/3734 800/3735
f 799/3736 797/3737 800/3738
f 804/3739 801/3740 805/3741
f 801/3742 802/3743 805/3744
f 805/3745 802/3746 803/3747
f 802/3748 800/3749 803/3750
f 807/3751 804/3752 808/3753
f 804/3754 805/3755 808/3756
f 808/3757 805/3758 806/3759
f 805/3760 803/3761 806/3762
f 761/3763 807/3764 763/3765
f 807/3766 808/3767 763/3768
f 763/3769 808/3770 762/3771
f 808/3772 806/3773 762/3774
f 764/3775 762/3776 692/3777
f 762/3778 695/3779 692/3780
f 809/3781 810/3782 863/3783
f 810/3784 811/3785 863/3786
f 813/3787 812/3788 840/3789
f 812/3790 841/3791 840/3792
f 814/3793 809/3794 864/3795
f 809/3796 863/3797 864/3798
f 815/3799 813/3800 842/3801
f 813/3802 840/3803 842/3804
f 816/3805 814/3806 817/3807
f 814/3808 864/3809 817/3810
f 818/3811 815/3812 819/3813
f 815/3814 842/3815 819/3816
f 814/3817 816/3818 822/3819
f 816/3820 823/3821 822/3822
f 809/3823 814/3824 820/3825
f 814/3826 822/3827 820/3828
f 810/3829 809/3830 821/3831
f 809/3832 820/3833 821/3834
f 822/3835 823/3836 826/3837
f 823/3838 827/3839 826/3840
f 820/3841 822/3842 824/3843
f 822/3844 826/3845 824/3846
f 821/3847 820/3848 825/3849
f 820/3850 824/3851 825/3852
f 826/3853 827/3854 830/3855
f 827/3856 831/3857 830/3858
f 824/3859 826/3860 828/3861
f 826/3862 830/3863 828/3864
f 825/3865 824/3866 829/3867
f 824/3868 828/3869 829/3870
f 830/3871 831/3872 834/3873
f 831/3874 835/3875 834/3876
f 828/3877 830/3878 832/3879
f 830/3880 834/3881 832/3882
f 829/3883 828/3884 833/3885
f 828/3886 832/3887 833/3888
f 834/3889 835/3890 838/3891
f 835/3892 839/3893 838/3894
f 832/3895 834/3896 836/3897
f 834/3898 838/3899 836/3900
f 833/3901 832/3902 837/3903
f 832/3904 836/3905 837/3906
f 838/3907 839/3908 842/3909
f 839/3910 819/3911 842/3912
f 836/3913 838/3914 840/3915
f 838/3916 842/3917 840/3918
f 837/3919 836/3920 841/3921
f 836/3922 840/3923 841/3924
f 815/3925 818/3926 845/3927
f 818/3928 846/3929 845/3930
f 813/3931 815/3932 844/3933
f 815/3934 845/3935 844/3936
f 812/3937 813/3938 843/3939
f 813/3940 844/3941 843/3942
f 845/3943 846/3944 849/3945
f 846/3946 850/3947 849/3948
f 844/3949 845/3950 848/3951
f 845/3952 849/3953 848/3954
f 843/3955 844/3956 847/3957
f 844/3958 848/3959 847/3960
f 849/3961 850/3962 853/3963
f 850/3964 854/3965 853/3966
f 848/3967 849/3968 852/3969
f 849/3970 853/3971 852/3972
f 847/3973 848/3974 851/3975
f 848/3976 852/3977 851/3978
f 853/3979 854/3980 857/3981
f 854/3982 858/3983 857/3984
f 852/3985 853/3986 856/3987
f 853/3988 857/3989 856/3990
f 851/3991 852/3992 855/3993
f 852/3994 856/3995 855/3996
f 857/3997 858/3998 861/3999
f 858/4000 862/4001 861/4002
f 856/4003 857/4004 860/4005
f 857/4006 861/4007 860/4008
f 855/4009 856/4010 859/4011
f 856/4012 860/4013 859/4014
f 861/4015 862/4016 864/4017
f 862/4018 817/4019 864/4020
f 860/4021 861/4022 863/4023
f 861/4024 864/4025 863/4026
f 859/4027 860/4028 811/4029
f 860/4030 863/4031 811/4032
f 876/4033 875/4034 873/4035
f 875/4036 874/4037 873/4038
f 877/4039 878/4040 876/4041
f 878/4042 875/4043 876/4044
f 892/4045 891/4046 869/4047
f 891/4048 870/4049 869/4050
f 865/4051 866/4052 868/4053
f 866/4054 938/4055 868/4056
f 868/4057 867/4058 870/4059
f 867/4060 869/4061 870/4062
f 873/4063 874/4064 872/4065
f 874/4066 871/4067 872/4068
f 878/4069 877/4070 900/4071
f 877/4072 899/4073 900/4074
f 880/4075 879/4076 889/4077
f 879/4078 890/4079 889/4080
f 878/4081 870/4082 875/4083
f 870/4084 891/4085 875/4086
f 872/4087 871/4088 892/4089
f 871/4090 891/4091 892/4092
f 870/4093 878/4094 868/4095
f 878/4096 900/4097 868/4098
f 866/4099 865/4100 882/4101
f 865/4102 881/4103 882/4104
f 882/4105 881/4106 884/4107
f 881/4108 883/4109 884/4110
f 884/4111 883/4112 886/4113
f 883/4114 885/4115 886/4116
f 886/4117 885/4118 888/4119
f 885/4120 887/4121 888/4122
f 888/4123 887/4124 890/4125
f 887/4126 889/4127 890/4128
f 865/4129 889/4130 881/4131
f 889/4132 887/4133 881/4134
f 881/4135 887/4136 883/4137
f 887/4138 885/4139 883/4140
f 871/4141 874/4142 891/4143
f 874/4144 875/4145 891/4146
f 879/4147 880/4148 893/4149
f 880/4150 894/4151 893/4152
f 893/4153 894/4154 895/4155
f 894/4156 896/4157 895/4158
f 895/4159 896/4160 897/4161
f 896/4162 898/4163 897/4164
f 897/4165 898/4166 899/4167
f 898/4168 900/4169 899/4170
f 868/4171 900/4172 896/4173
f 900/4174 898/4175 896/4176
f 868/4177 896/4178 880/4179
f 896/4180 894/4181 880/4182
f 868/4183 880/4184 865/4185
f 880/4186 889/4187 865/4188
f 902/4189 914/4190 901/4191
f 914/4192 913/4193 901/4194
f 909/4195 921/4196 908/4197
f 921/4198 920/4199 908/4200
f 906/4201 918/4202 905/4203
f 918/4204 917/4205 905/4206
f 901/4207 913/4208 912/4209
f 913/4210 924/4211 912/4212
f 903/4213 915/4214 902/4215
f 915/4216 914/4217 902/4218
f 910/4219 922/4220 909/4221
f 922/4222 921/4223 909/4224
f 907/4225 919/4226 906/4227
f 919/4228 918/4229 906/4230
f 904/4231 916/4232 903/4233
f 916/4234 915/4235 903/4236
f 911/4237 923/4238 910/4239
f 923/4240 922/4241 910/4242
f 908/4243 920/4244 907/4245
f 920/4246 919/4247 907/4248
f 905/4249 917/4250 904/4251
f 917/4252 916/4253 904/4254
f 912/4255 924/4256 911/4257
f 924/4258 923/4259 911/4260
f 919/4261 931/4262 918/4263
f 931/4264 930/4265 918/4266
f 916/4267 928/4268 915/4269
f 928/4270 927/4271 915/4272
f 923/4273 935/4274 922/4275
f 935/4276 934/4277 922/4278
f 920/4279 932/4280 919/4281
f 932/4282 931/4283 919/4284
f 917/4285 929/4286 916/4287
f 929/4288 928/4289 916/4290
f 924/4291 936/4292 923/4293
f 936/4294 935/4295 923/4296
f 914/4297 926/4298 913/4299
f 926/4300 925/4301 913/4302
f 921/4303 933/4304 920/4305
f 933/4306 932/4307 920/4308
f 918/4309 930/4310 917/4311
f 930/4312 929/4313 917/4314
f 913/4315 925/4316 924/4317
f 925/4318 936/4319 924/4320
f 915/4321 927/4322 914/4323
f 927/4324 926/4325 914/4326
f 931/4327 937/4328 930/4329
f 928/4330 937/4331 927/4332
f 935/4333 937/4334 934/4335
f 932/4336 937/4337 931/4338
f 929/4339 937/4340 928/4341
f 936/4342 937/4343 935/4344
f 926/4345 937/4346 925/4347
f 933/4348 937/4349 932/4350
f 930/4351 937/4352 929/4353
f 925/4354 937/4355 936/4356
f 927/4357 937/4358 926/4359
f 934/4360 937/4361 933/4362
f 922/4363 934/4364 921/4365
f 934/4366 933/4367 921/4368
